<svg xmlns="http://www.w3.org/2000/svg" version="1" width="400.322" height="561.002" viewBox="0 0 320.25747 448.80155"><path d="M147.9.802c-10.6 1.4-18 3.2-37.4 9.2-25.5 7.9-58.2 30.4-76.2 52.5-7.1 8.7-8.6 11.4-15.9 28.3-2.8 6.6-5.9 13.8-6.9 16-1 2.2-2.6 6.5-3.5 9.5-.9 3-2.5 7.6-3.6 10.3-3 7.2-4.4 21.2-4.4 42.2.1 19.2 1.8 32.2 6.1 46.7.8 2.6 2.7 9.9 4.4 16.2 1.6 6.4 3.6 13.2 4.5 15.2 2 4.9 1.9 7.1-.5 7.7-1.7.4-2 1.4-2 5.4 0 4.4.4 5.3 4.1 8.8 6.4 6.3 16.6 18.8 17.4 21.5.4 1.4 1.1 2.9 1.5 3.5 2 2.5 7.4 16.8 9.1 23.8 1 4.3 2.6 9.2 3.6 11 1 2 1.8 6.1 1.9 11.2.4 10.8 1.3 21.8 2.4 29 .5 3.3 1.2 8 1.5 10.5 1.5 11.3 2.9 16.8 5.5 21.9 3.7 7.2 5.5 9.3 10.7 12.5 2.4 1.4 7.3 5.4 11 8.9 8.5 7.8 11.8 10 16.8 11.7 2.2.7 5.8 2.4 8 3.7 17.1 10.5 20 11.4 31.4 10.4 3.8-.4 10.3-.4 14.3-.1 4 .3 16.1.5 26.8.5H198l7-3.3c20-9.6 26-13 29.4-16.5 3.3-3.5 9.2-9.3 20.6-20.2 3.5-3.3 4.3-4.9 4.9-9 .7-5.4 2.2-13.6 3.7-20.2.5-2.4 2.1-12 3.4-21.4 1.6-10.6 3.3-18.6 4.5-20.9 2.2-4.4 4.3-9.8 7.1-18.7 1.1-3.4 3.4-8.3 5.2-11 1.7-2.6 3.3-5.5 3.5-6.3.8-3.7 5-10.6 10.2-16.7 11.2-13.3 10.5-12 10.3-19.2-.2-5.4-.6-6.8-2.4-8.2-2.1-1.6-2.2-1.9-1-10.7.6-5 1.4-9.8 1.7-10.7.4-1 0-1.5-1-1.5-.9 0-1.6-.5-1.6-1.1 0-.6.8-.9 1.9-.6 1.6.4 2.3-1 4.9-9.2 1.7-5.3 3.3-11.9 3.7-14.6.3-2.8 1.7-9.1 3-14 4.1-15.3 4.4-45.4.5-59.5-.6-1.9-2.1-8.2-3.4-14-2.6-11-8.1-27.2-11.7-34.1-1.1-2.3-1.8-4.7-1.5-5.5.3-.8.1-1.4-.4-1.4-.6 0-1-.4-1-1 0-.9-.6-1.8-5.2-7.2-1-1.2-1.8-2.7-1.8-3.4 0-.7-2.8-4.3-6.2-8.1-3.5-3.8-8.9-9.9-12-13.5-6.6-7.6-14.2-12.8-32.3-22.3-7.2-3.8-14.1-7.4-15.5-8.2-1.4-.7-2.9-1.3-3.3-1.3-.4 0-5.2-1.9-10.5-4.1-6.2-2.7-14.6-5.2-23.2-6.9-7.4-1.6-14.2-3.1-15-3.3-3.7-1.3-17.4-1.3-26.6-.2zm31 2.9c3.8.8 7.4 2 7.9 2.5.6.6 2.1 1.1 3.3 1.1 1.3 0 2.6.4 2.9 1 .3.5 1.7 1 3.1 1 1.7 0 2.3-.4 1.8-1.2-.5-.7-.2-.9.8-.5.9.3 3.4 1.1 5.7 1.8 2.3.7 4.1 1.6 4.1 2 0 .4 1.4 1 3.1 1.4 1.7.4 3.3 1.3 3.6 2 .6 1.7 7.7 5.5 10.1 5.5 1.2-.1.8-.6-1.1-1.6-1.6-.9-2.7-1.8-2.4-2.1.8-.7 6.7 2.6 7.3 4.2.3.8 1.1 1.2 1.9.9.7-.3 1.5.2 1.8 1 .4.9 1.3 1.3 2.1 1 1.3-.5 11.6 4 11.6 5.2 0 .3-.6.2-1.2-.1-.7-.4-.3.3 1 1.4 1.3 1.1 3.9 2.3 5.8 2.7 1.9.3 3.4 1 3.4 1.5s.6.9 1.4.9c.8 0 1.6.7 2 1.5.3.8 1.2 1.5 2 1.5 1.7 0 9.8 8.9 9.1 10-.3.4.2 1.3 1 2s1.5 1.8 1.5 2.6c0 .7.8 1.9 1.8 2.6 1 .7 2.1 2.1 2.5 3 .3 1 1.5 1.8 2.6 1.8 2.2 0 3.6 2.6 1.8 3.4-.7.3-.3.4.7.3 1-.1 2.1.4 2.3 1 .3.7-.2 1.3-1 1.3s-1.8.7-2.1 1.6c-.5 1.4-.4 1.5.8.5 1.2-1 1.7-.9 2.8.8.7 1.2 2.1 2.1 3 2.1 1 0 1.8.5 1.8 1.1 0 .5-.4.7-1 .4-.5-.3-1-.1-1 .5 0 .8-.6.8-2 0-1.6-.9-1.8-.8-1.4.5.4.8 1 1.5 1.5 1.5s.9.7.9 1.5.4 1.5.8 1.5c.9 0 4.6 6 4 6.6-.7.6-4.5-3.2-6.4-6.6-1-1.6-2.2-3-2.6-3-1.3 0-.9 1.7.7 3 .8.7 2.4 3.2 3.4 5.5 1.9 4.2 4.8 7.5 3.4 3.8-.6-1.6-.5-1.6 1-.4 1.4 1.1 1.7 1.1 1.7 0 0-1 .3-1 1.2-.1 1 1 1 1.5-.1 2.1-1.1.7-1 1.3.8 3.2 2.5 2.7 3 5.9.6 3.9-.8-.7-1.5-1.8-1.5-2.5s-.7-1.8-1.5-2.5-1.5-.9-1.5-.6c0 1.3 3.3 7.1 4.4 7.8.8.6.7 1-.2 1.6-1.1.7-1 1.6.5 4.6 1.4 3.1 1.5 3.9.3 4.6-1 .6-1.1 1.2-.3 2.2.6.7 1 2.6.9 4.1-.1 1.6.2 3.1.6 3.3.4.3.8-.2.8-1.1 0-.9.5-1.3 1-1 .8.5.7 1.1 0 2.1-.7.8-1 3-.6 5.4.8 5.9-.9 4.9-2.4-1.5-.7-3-1.7-5.5-2.2-5.5-1 0-1.1-.4.7 5.4 1.5 4.8 1.3 8.6-.4 8.6-.5 0-1.1 1.4-1.5 3.2-.8 4-1.4 3.4-1.9-2.2-.3-3.2-.9-4.6-2-4.8-1.4-.3-1.6.2-1 2.9.4 2.3.3 3-.6 2.5-.8-.5-.8 0 .1 1.9.9 2.1.9 3.1 0 4.6-.7 1-1.2 2.6-1.2 3.4 0 2-2.1 5.8-3.9 6.9-1.1.7-1.1 1 0 1.7 1 .6 1.1.9.2.9-.7 0-1.3.7-1.3 1.5s-.4 1.5-.9 1.5-.7 1.5-.6 3.2c.2 1.8.4 3.3.5 3.3.1 0 .3 1.7.6 3.7.3 2.1.1 3.8-.3 3.8-1.2 0-5.1-6.2-5.8-9.3-.8-2.9-2.5-4.7-2.5-2.6 0 .7-.9.3-2-.9-1.9-2-4-2.9-4-1.7s4.5 5.5 5.7 5.5c.7 0 2 1.8 2.9 4 .9 2.2 2 4 2.6 4 .5 0 .7.4.4.9-.3.4.3 1.6 1.4 2.6 2.6 2.3 2.6 3.8 0 3-1.5-.5-2-.2-2 1.1s-.5 1.1-2.1-1c-1.2-1.6-1.8-3.3-1.4-4.5.3-1.1.1-2.2-.5-2.6-.5-.3-1-.1-1 .6 0 .8-.6.6-1.8-.4-3.5-3.2-4.5-1.8-1.6 2 1.5 2.1 2 3.2 1.1 2.4-1.5-1.2-1.7-1.1-1.7.5 0 1.7-.3 1.6-1.9-.6-1.1-1.3-1.7-2.8-1.5-3.2.3-.4-.4-.8-1.5-.8-1.2 0-2.1-.3-2.1-.8 0-.7-9.2-4.8-9.8-4.4-.1.2-1-.4-1.8-1.3-1.8-1.7-3.4-2-3.4-.5 0 .5.5 1 1.2 1 .6 0 .9.2.6.5-.8.8-5.8-1.7-5.3-2.6.3-.4-.3-.6-1.2-.4-1 .2-2.2.4-2.6.4-1.7.2.4 1.9 4.7 4 2.4 1.1 4.7 3 5.1 4.1.3 1.1 1.3 2 2.1 2s1.4.4 1.4.9 1.1 1.6 2.5 2.5c2 1.3 3 1.4 4.6.6 3.8-2.1 13.2 5.8 9.8 8.2-1.1.8-1.1.9.2.5 2.1-.7 8.1 6.4 9.8 11.4.9 2.9.9 4.1-.3 6.4l-1.5 2.8-1.5-3.8c-.9-2.1-1.6-4.3-1.6-5 0-1.7-2.5-3.7-3.5-2.7-.5.4-.5.2-.2-.4.4-.6-.5-2.2-1.8-3.4-1.4-1.3-2.5-2.9-2.5-3.5 0-.6-1.3-2.1-3-3.3-3.2-2.4-4.5-2.8-3.4-1 .4.7.3.8-.5.4-.6-.4-.9-1.2-.6-1.7.4-.5.2-.9-.3-.9-.4 0-2.4-1.3-4.3-3-1.9-1.6-4-3.5-4.8-4.1-1-.9-1.8-.9-3.2-.1-2.6 1.7-4.7 1.5-2.4-.2 1.6-1.2 1.2-1.3-4.2-1.5-5.9-.1-12-2.1-10.6-3.4.3-.4-.9-.7-2.8-.7-2.7 0-3.1-.3-1.9-1.1 1.2-.9 1.1-1-.5-.4-4.3 1.4-7.5 1.7-7.5.7 0-1.6-5.8-4.2-7.7-3.5-1.1.5-1.4.3-.9-.6.5-.7 1.7-1 2.8-.8 1.1.3 4.1-.1 6.6-.9 2.6-.7 5.7-1.4 7-1.4 1.2 0 2.2-.5 2.2-1 0-1.4-3.7-1.2-9.4.5-2.6.8-5.2 1.3-5.6 1-.4-.3-2 .1-3.5.9s-3.4 1.2-4.1.9c-.8-.3-1.4-.1-1.4.3 0 .5-1 1-2.3 1-3 .2-15.4 8.1-14.3 9.2.3.3 1.5-.3 2.6-1.3s2-1.4 2-1c0 .5.5.4 1.2-.3 1.7-1.7 3.3-1.5 1.9.2-.6.8-2.5 1.9-4.1 2.6-1.7.7-3 1.9-3 2.6 0 .8-.5 1.4-1.1 1.4-.5 0-.7.4-.4 1 .4.6 1.3.5 2.5-.2 1-.7 1.7-1.5 1.4-1.9-.2-.4 0-1 .6-1.4.5-.3 1-.3 1.1.2.6 6.5.4 7.1-2.8 8.6-3.1 1.4-3.3 1.3-4-.7-1.1-3.5-1.1-6 .1-7.5.9-1.2.8-1.2-1.1-.3-2.8 1.5-3.6 1.5-2.7-.1.4-.6-.2-.3-1.5.7-1.5 1.4-2.5 1.6-3.2.9-.8-.8-.5-1.4 1-2.2 1.2-.7 2.7-1.1 3.4-.9 1.7.3 6.8-2.6 8.9-5.1 1-1.2 2.4-2.1 3.2-2.1.8 0 1.6-.7 1.9-1.4.5-1.2.2-1.3-1.6-.5-1.2.5-3 1.2-3.9 1.5-1 .3-2 1.5-2.3 2.5-.4 1.1-2.2 2.3-4.8 2.9-2.3.6-5.7 1.5-7.6 2-2.1.6-4.1.5-5.2-.1-2.6-1.3-2.4-2.2.2-1.4 1.5.5 1.9.4 1.5-.4-1-1.5-4.1-1.4-5.5.3-1.6 1.9-9.5 2.5-11 .8-1-1-.7-1.2 1.6-.7l2.8.7-2.3-2c-2.2-1.7-2.2-2-.8-3.4.8-.9 1.2-1.8.9-2.2-.9-.9-4.3-.8-4.2.1.1.5 0 1.2-.1 1.8-.1.5-.3 1.9-.4 3-.1 1.3-.9 2.1-2.6 2.3-1.4.2-3 .8-3.6 1.3-.6.5-2.7.3-5-.4l-3.9-1.1 5.5-.7c5.8-.6 5.9-1.2.1-.9-2.7.1-3.3-.1-2.8-1.4.7-1.9.6-1.9-2.7-.6-2.7 1-7.1 0-7.1-1.6 0-.5-.7-.7-1.5-.6-5.2 1.2-7.4.7-8.4-2-1.3-3.6-.5-4.2 3.8-2.7 2.7 1 4 1 5.8.1 2.1-1 2-1.1-1.2-.6-2.7.4-4.2 0-6.4-1.7-2.8-2.2-2.8-2.2-8.2-.3-3 1-5.4 2.1-5.4 2.4 0 1.4-8 5-11.2 5-3.9 0-15.1 3.4-18.5 5.6-2.8 1.8-3.3 1.8-3.3-.1 0-.9.8-1.9 1.8-2.2 2.1-.9 8.7-5.3 7.8-5.3-.4 0-2.3.7-4.2 1.5-2 .8-4 1.2-4.6.9-.5-.3-3.6 1.5-6.8 4-3.2 2.5-6.4 4.6-7 4.6-.6 0-3.9 2.1-7.3 4.7-4.3 3.3-5.7 4.9-4.5 5.1 2 .4 7.8-2.5 7.8-3.8 0-.6 1-1 2.3-.9 1.4 0 1.7.2.7.6-.8.3-2.9 1.9-4.7 3.5-1.7 1.7-4.2 3.5-5.4 4.2-1.2.6-2.4 1.7-2.7 2.5-.3.9 0 1.1.9.5 1.2-.7 1.2-.5 0 .9-.7.9-1.7 1.5-2.1 1.2-1.6-1-3 6.3-3.4 18.2-.5 12.4-.4 12.8 3.2 12.4 1.5-.2 4.4 2.4 3.5 3.2-.3.3-1.3-.1-2.2-1-1.5-1.6-1.6-1.5-1.9.6-.2 1.3.1 2.8.7 3.4.6.6 1.1 2.2 1.1 3.5 0 3.3 9.6 12.5 17.3 16.4 4.9 2.5 7.8 3.2 14 3.6 8.2.5 19.6-1.7 22.8-4.4.8-.8 2.3-1.4 3.2-1.4.9 0 1.7-.4 1.7-.8 0-.5 1.9-1.9 4.3-3.2 9.8-5.5 20.5-15.8 24.2-23.3 1.7-3.6 2.9-8.4 3.7-15.5.6-5.6 1.5-10.2 2-10.2.4 0 .8-.7.8-1.5 0-2.2 2.3-1.8 3.8.5.7 1.2.8 2 .2 2-.5 0-1 .6-1 1.4 0 .7-.7 1.9-1.5 2.6-1.7 1.4-2 3-.6 3 .5 0 1.3-.9 1.6-2 .9-2.8 2.9-2.6 2.1.2-1.4 5.3-1.9 10.1-.9 9.5 2.1-1.3 3.8-20.6 2.1-24-1.5-3 2.6-9 7.2-10.5 6.9-2.1 7.4-1.8 6.6 3.5-1.4 9.8-1.8 25.8-.8 28.3.9 2.1 1.1 1.4 1.3-4.5l.1-7 .8 5c.4 2.7 1.1 6.8 1.5 9l.8 3.9-2.6-1.7c-1.6-1-2.7-1.3-2.7-.7 0 .6-.8.9-1.8.6-1.4-.5-2.3.5-4 4.6-1.6 3.8-1.9 5.5-1.1 6.5.9 1 .5 1.8-1.5 3.4-1.4 1.1-2.6 2.7-2.6 3.5 0 .8-.4 1.4-.9 1.4-.4 0-.6 1.1-.3 2.5.8 4.2-1.3 2.8-2.6-1.8-1.4-4.7-1.8-12.7-.8-17.9.6-2.7.5-3-.5-1.5-1 1.7-1.2 10.9-.7 27 .1 2.7-.3 5.1-.9 5.5-1.3.8-2.6 7.9-2.4 13.1.1 1.8-.3 3.9-.8 4.5-1 1.4-2 7-2.7 15.7-.5 7.6 1.9 15.7 6.3 20.9 2.9 3.5 6.2 3.8 12.4 1.3 3.7-1.5 4.2-1.5 5-.1.6 1 1.7 1.4 2.9 1.1 2.1-.6 2.7.6 1 2.3-1.1 1.1-.2 8.4 1.1 8.4.5 0 .9-.7.9-1.5s.5-1.5 1.1-1.5c.7 0 .9-1.2.5-3.6-.6-3.1-.5-3.5 1.1-3.2 1.2.3 1.7 1.1 1.5 2.7-.2 2.3 2.1 5.5 3.2 4.4.3-.4.3-2.2 0-4-.5-2.7-.3-3.3 1.2-3.5 1.1 0 2.4-.2 2.9-.2.6-.1 2.9-1.9 5.1-4.1 3.9-3.8 4.8-5.9 5.6-13.8.4-3.2 1.8-1.8 1.8 1.8 0 5 1.4 4.3 2.9-1.5s3.1-7.4 3.1-3.1c0 1.7.4 3.1.9 3.1s.7-.9.4-2c-.3-1.2 0-2 .6-2 .7 0 .9.4.6 1-.3.5-.1 1 .4 1 1.6 0 1.3-1.9-.4-3.6-1.1-1.1-1.3-3-.9-7.4.6-6.3-.1-7.2-2.8-4.1-1.2 1.4-1.3 2.1-.5 2.4.9.3.9.8-.1 1.8-1 1.1-1.5 1-3-.4-1.5-1.6-1.5-1.9-.2-2.7.8-.5 1-1 .3-1-.6 0-.9-.8-.6-1.9.2-1 0-3.5-.5-5.5-.8-2.9-.8-3.6.4-3.6.8 0 1.4.7 1.4 1.5 0 2.6 1.5 1.6 1.6-1 .2-2-.3-2.5-2.2-2.5-1.2 0-2.8-.8-3.4-1.8-.9-1.4-1-1.1-.4 1.3 1 4.5 1 5-.1 5.3-.5.1-1.1-.8-1.3-2.2-.2-1.3-1-3-1.8-3.7-1.2-1-1.3-.9-.8.5.3.9.1 1.6-.5 1.6s-1.1-1.2-1.1-2.6c0-1.4.4-2.3.8-2 .5.3.9-1.1 1-3.2l.1-3.7-1.5 2.5c-.8 1.4-1.3 1.8-1.1 1 .2-.8 0-2.7-.4-4.2-.4-1.7-.3-2.8.3-3 .7-.3.6-1.1-.3-2.5-.7-1.2-1-2.5-.6-2.9 1-1 5.8 1.7 5 2.9-.3.5.3.6 1.6.2 1.2-.4 2.1-.2 2.1.4 0 .6.7 1.1 1.5 1.1.9 0 2 1.1 2.5 2.5s1.4 2.5 2 2.5c.5 0 1 .7 1 1.6 0 .8-.4 1.3-.9.9-.5-.3-1.1.3-1.4 1.2-.3 1.4-.6 1.1-1.1-1-.5-1.5-1.4-2.7-2.2-2.7-.8 0-1.4-.5-1.4-1.1 0-.6-.7-1.7-1.6-2.6-1.1-1.2-1.8-1.3-2.7-.4-.8.8-.8 1.4.1 2.3.7.7 1.2 2.1 1.3 3.2 0 2.1 0 2.1.9.1.7-1.8.9-1.8 2 1 .7 1.6 1.2 3.8 1.1 4.7-.1 1 .4 1.8 1.1 1.7 2-.1 5-1.4 4.9-2.2-.3-2.1 0-2.8.9-2.2 1.3.8 1.3-.6 0-3.9-.7-2-.6-2.4.5-1.9.8.3 1.5 1.4 1.5 2.5 0 1.7.3 1.8 1.5.8 1.5-1.2 2-.4 1.6 2.2 0 .5.6.8 1.5.8 1 0 1.4.6 1.1 1.4-.4 1-.1 1.3.8 1 .7-.3 2.3.4 3.4 1.5 2.2 2.2 4.1 1 2.2-1.3-.9-1.1-.6-1.2 1.5-.8 1.4.2 2.8 1.1 3.1 1.8.3.8 1.1 1.4 1.8 1.4s1.6 1.1 1.9 2.4c.3 1.4 1.5 2.8 2.6 3.1 1.2.4 2.8 1.5 3.8 2.5.9 1 3.2 2 5.1 2.2 3.4.3 5.8 2.8 2.7 2.8-2.4 0-1.9 1.8.7 2.5 5 1.4 7.7 2.8 7.7 4 0 .7 1.7 1.6 3.8 1.9 5.2 1 10.5 2.9 12 4.3.7.7 2 1.3 2.8 1.3.8 0 1.4.4 1.4 1 0 .5.7 1 1.5 1 2.5 0-.3 3.5-4.2 5.4-3.3 1.5-4.6 4.6-2 4.6.8 0 2.1.8 3 1.8 1.6 1.7 1.5 2-1.4 4.1-1.6 1.2-3.5 2.1-4.2 1.8-.7-.2-.3-.9 1-1.5 2.6-1.4 2.1-4.2-.7-4.2-1 0-2-.4-2.2-1-.2-.6-.8-.6-1.8 0-1.3.9-1.3 1.1-.1 1.9.8.5 2 .7 2.7.4.6-.2 1.5 0 1.9.6.3.7-.3 1.1-1.5 1.1s-1.8.4-1.5 1c.3.5-.4 1-1.6 1-1.8 0-1.9-.2-.9-1.5 2-2.4-1.6-1.9-4 .5-2.1 2.1-4 2.6-4 1.1 0-.6-1.2-.6-3.1-.1-1.6.5-3.8.7-4.7.4-.9-.3-.6.1.7.9 1.7 1 2 1.6 1 1.9-.8.3-1.1.9-.7 1.3.4.4 1.4.2 2.3-.5.8-.7 1.5-.9 1.5-.6 0 .4-1.3 1.9-3 3.3-1.6 1.3-3 3.4-3 4.4 0 1.1-.4 1.7-1 1.4-.5-.3-1 .3-1 1.4 0 2.6-2.7 2.8-4.7.3-1.3-1.5-1.4-1.3-.9 2.1.5 4.3.1 4.6-2.5 1.5l-1.9-2.1v2.1c0 1.2.5 2.2 1 2.2.6 0 1 1.2.9 2.7 0 2.5-.1 2.6-.9.8s-.9-1.8-.9-.2c-.1 2.5-2.1 1.1-2.1-1.4 0-1.6-.5-1.9-1.9-1.4-1.1.3-2.3 0-2.7-.7-.9-1.4-1-1.9-1.2-5.6-.1-1.2-.6-2.2-1-2.2-1.1 0-1 12.5 0 13.6.4.4.3 1.3-.4 2.1-.8 1-.8 1.7 0 2.5 1.4 1.4 1.6 5.8.3 5.8-1.1 0-2.5-9.3-2.4-16.3 0-2.6-.3-4.7-.8-4.7s-.9-.9-.9-2-.7-2-1.5-2c-.9 0-1.2.6-.9 1.5.4.8.2 1.5-.3 1.5-.9 0-3.3-9.1-3.3-12.3 0-1-.5-1.5-1-1.2-.6.4-.8 1.6-.4 2.7.3 1.1.7 2.6.8 3.2.1.6.4 1.6.8 2.1.4.6.9 6.6 1.2 13.5.4 6.8.9 12.6 1.1 12.9.3.2-.9 1.3-2.6 2.3-2.2 1.3-3.5 1.6-4.3.9-.7-.6-1.7-.7-2.1-.3-.5.4-.6.2-.2-.3.3-.6-.3-1.6-1.3-2.3-1.6-1-2.1-.9-3 .6-.8 1.4-.9 1.2-.4-1.1.4-1.7.2-2.7-.5-2.7-.6 0-1.1 1.3-1.1 3 0 3.4.1 3.4-3.4 2-2.5-.9-2.6-.8-2.6 2.9 0 4.7-.8 5.6-3.1 3.3-1.6-1.6-1.6-1.9.4-5.2 1.2-1.9 2.4-3.6 2.7-3.8 1.2-.5-.2-11.7-1.6-13.3-.8-.8-1.4-3.4-1.4-5.7 0-3.1-.4-4.2-1.6-4.2-.8 0-1.2-.5-.9-1 .4-.6 1.1-.8 1.6-.5.5.4.9.2.9-.3s-1.2-1.2-2.6-1.5c-1.8-.3-2.4-.1-2 .9.3.7-.2 1.8-1 2.5-1.4 1.1-1.3 1.4.5 2.1 2.3.8 2.9 3.8.9 3.8-1 0-1 .2-.1.8 1.2.8 1.8 3.5 2.8 14 .6 5.8.1 7.4-1.8 6.6-.8-.3-1.1-1.7-.9-3.7.3-2.9.1-3.3-2.2-3.5-2.2-.1-2.6.2-2.6 2.7 0 2.1-.6 3-2.1 3.4-1.5.4-1.9 1.1-1.4 2.5.9 2.9-1.2 3.7-2.6 1-.9-1.6-.9-2.3 0-2.6.6-.2 1.1-1 1.1-1.7s.7-1.2 1.6-1.1c.9 0 1.9-.5 2.2-1.3.2-.8.1-1.1-.4-.9-.5.3-1.7.3-2.6-.1-1.3-.4-1.5-1-.7-2.1s1.2-1.2 1.6-.2c.7 1.7 2.3.5 1.6-1.3-.3-1.1.2-1.5 1.8-1.6h2.4l-2.4-1c-1.8-.7-3-.5-5 .8-1.4 1-3 1.6-3.5 1.5-.5-.2-.3.4.4 1.3.7.8 1 1.8.6 2.2-.3.3-.6.1-.6-.5 0-.7-.4-1.2-1-1.2-.5 0-1 .7-1 1.5s-.9 1.9-2.1 2.5c-1.8 1-2.1.8-2.7-1.2-.5-2.2-.6-2.2-1.8.7-1.2 2.7-1.3 2.8-1.4.7 0-1.3-1.1-3.5-2.5-5-1.5-1.6-2-2.9-1.4-3.1.8-.2.7-.6-.2-1.1-1-.7-1-1.6-.1-4.6 1.3-4.4.8-5.5-1.4-2.8-2.4 3-1.3 16.1 1.5 18.1 2.7 1.8 1.6 3.7-1.6 2.8-3-.7-6.5 1.9-5.6 4.2.4 1.1 0 1.4-1.8 1.1-1.6-.2-2.5-1.1-2.7-2.6-.3-1.6-1-2.2-2.8-2.2-1.3 0-2.4-.4-2.4-.8 0-.5-1.3-.7-3-.4-1.6.2-2.8.8-2.5 1.2.3.5.1 1.1-.5 1.5-.6.4-.8 1.1-.5 1.6.4.5-.1.9-1 .9-2.1 0-3.1-3-1.4-4.1.8-.5 1-.9.6-.9s-2.1 1-3.7 2.2c-2.3 1.6-2.7 2.5-1.9 3.5 1.4 1.6-.3 1.8-3.3.2-1.4-.8-2.7-.7-4.8.1-2.4 1-3.3.8-6.4-1.2-2-1.3-3.6-3-3.6-3.8 0-.8-.7-2.3-1.4-3.3-1.3-1.6-1.4-1.6-2 .9-.6 2.1-1.1 2.5-3 2s-2.7.1-4.5 3.4c-2.6 4.6-3.5 4.5-5.2-.8-.6-2-2.6-6.9-4.4-10.7-1.7-3.9-3.5-8.2-3.9-9.8-.6-2.7-.6-2.7 3.6-2.1 2.4.4 5.9 1.4 7.8 2.3 3.5 1.6 3.5 1.7 3.6 8.3 0 3.7.3 7 .6 7.4.4.3 1.6.3 2.7-.1 1.6-.5 2.1-1.5 2.2-4.3 0-3 .2-3.3.9-1.7.6 1.4.9.2.9-4.2.1-3.4-.3-6.4-.8-6.7-.4-.3-.4-2.9 0-5.8.8-4.8.6-6.8-.5-5.7-.3.3-.8 2.7-1.1 5.4-.4 2.8-.9 5.2-1.1 5.4-1.2 1.3-9.4-11.8-9.4-14.9 0-1.9-3.7-2.9-9.8-2.5-6.4.4-12.5-1.3-13.4-3.7-.3-.7-.3-2.7-.1-4.3.4-2.5 1.5-3.5 6.5-5.9 6.4-3.1 7.7-4.8 5.8-7.1-1.8-2.2-3.2-1.8-2 .5 1.3 2.5.5 4-2.2 4-1.1 0-3.1.9-4.5 2s-3.4 2-4.4 2c-2.1 0-2.5 1.5-.9 2.5 1.7 1-.7 3.3-4.2 4-2.9.7-10.8-1.9-10.8-3.5 0-.4-1.2-1.2-2.6-1.8-1.5-.7-2.2-1.7-1.8-2.4.4-.6.3-.8-.4-.4-.6.3-4.1-2.8-7.9-7-3.7-4.2-8.5-9.4-10.6-11.6-2-2.2-3.7-4.9-3.7-6 0-1.1-.5-2.8-1-3.9-1-1.7-.7-1.9 3.5-1.9 7.1 0 8.7-2.3 11.7-16.5.9-4.5.8-7.5-.8-20.1-.5-3.2.1-5.5 2.4-10.5 2.5-5.2 3.1-8.2 3.6-16.4.8-11.9 1.4-15.6 3.1-17 1.7-1.4 6.5-17.4 5.4-18.1-.5-.2-1.1.8-1.5 2.3-1 4.6-1.3 5.3-2.4 5.3-.6 0-.8-1-.5-2.3.8-3.2-2.8-17.7-7.4-29.9-2.1-5.6-4.2-12.3-4.6-14.6-.4-2.7-1.1-4-1.6-3.5-.6.6-.4 3.2.6 6.8.8 3.3 1.5 6.9 1.5 8.2 0 2.2 2.8 10.3 3.9 11.3.3.3.7 2.3.7 4.5.1 2.1.7 4.1 1.3 4.3 1.5.5 1.4 2.8-.2 4.4-.8.8-1 2.2-.6 3.8.4 1.4.7 1.9.8 1.2.1-.7.6-1 1.1-.7 1.3.8 1.3 14.2 0 15-2 1.2-5-1.5-5-4.6 0-2.7-.2-2.9-1.5-1.5-1.4 1.3-1.8 1.3-4.5-.2-1.9-1.1-2.8-2.3-2.5-3.3.3-.9-.1-2.2-1-2.9-.8-.7-1.5-1.9-1.5-2.6 0-.8-.4-1.4-1-1.4-1.4 0-1.2 1.1.5 3.4.8 1.1 1.5 2.9 1.5 4.1 0 1.2.5 2.6 1.1 3.2 1.2 1.2-1.4 4.3-3.6 4.3-.7 0-1.5 1-1.7 2.2-.2 1.2-1.9 3.3-3.8 4.6l-3.5 2.4-1-2.7c-.8-2.1-1.3-2.5-3.6-2-1.5.4-3 .2-3.3-.4-.5-.8.5-19.5 1.8-35.1.6-6 12.1-39.6 13.5-39.2.6.1 1.1-.5 1.1-1.3 0-3.2 6.3-15.5 7.9-15.5 1.3 0 1.3.2.2.9-1.7 1.1-4.2 8.1-3.3 9.5.3.6 1.1-.9 1.7-3.4.7-3 1.6-4.5 2.7-4.5 2.6 0 3.5-1.5 1.7-2.8-1.2-.9-1.4-1.8-.8-3.5 1.1-2.9 3.2-2.9 2.5 0-.4 1.5-.1 1.3.8-.6.7-1.6 1.2-5.1 1.1-7.8-.2-3.8.2-5.2 1.6-6.2 1-.7 1.6-1.6 1.1-2-.4-.4-.2-.6.4-.4.6.2 3.2-2.3 5.8-5.4 2.6-3.2 7-8 9.9-10.7 5-4.7 23.3-19.1 24.3-19.1.2 0 3.9-2.2 8.2-4.9 10.4-6.5 34.1-16.1 39.5-16.1.6 0 4.1-.9 7.7-2 15.7-4.8 33.3-5.7 48.4-2.6zm-151 74.8c-1.5 2.4-3 4.5-3.1 4.7-.2.2-.6.2-.9-.1-.3-.3.7-3 2.1-5.8 1.9-3.8 3-4.9 3.7-4.2.8.8.3 2.3-1.8 5.4zm271.4 11.6c-.5 2.3-2.1.8-2.4-2.3-.2-2.8-.1-2.8 1.2-1 .8 1.1 1.3 2.6 1.2 3.3zm5.2 10.2c0 .9.6 2.4 1.4 3.5 1.3 2 2.9 9.5 2 9.5-.2 0-1-1.2-1.6-2.8-1.7-4.3-5.8-15.6-5.8-16.2.1-1.3 4 4.7 4 6zm-2 3.7c0 .9.9 3.5 1.9 5.7 2.2 4.6 4.5 11.5 5.6 16.3.4 2.1 1.3 3.3 2.2 3.3 2.4 0 1.2.6-2.4 1.3-2.5.5-3.3.3-3.3-.8 0-.8-.4-1.5-.9-1.5-1.2 0 .4 6.4 2.7 10.7.9 1.8 1.9 2.8 2.2 2.3.3-.5 1.1-.5 2 .1 1.3.8 1.3 1.1-.2 2.3-2.2 1.6-2.3 2.6-.3 2.6 2.3 0 .6 2.8-2.6 4.2-1.6.7-2.9 2-3 2.8 0 .8-.5-.1-1.1-2-.8-2.9-1.1-3.2-1.9-1.7-1.5 2.6-2.6 2-2.6-1.3 0-1.7.4-3 .9-3 .4 0 .8.5.8 1.2 0 .6.3.9.6.6.3-.3.1-2.3-.5-4.4-1.5-5.7-2.1-14.2-1-14.6.5-.2.6-1.5 0-3.4-.5-1.7-.7-5.7-.5-8.9.3-3.7 0-6.3-.8-7.3-1-1.2-1-1.4 0-.8 1.4.8 1.6-.3.3-2.4-1-1.5-.6-3 1-3 .5 0 .9.8.9 1.7zm-5.2 27.6c-.1.2.3 1.1 1 2 1.1 1.3 1.1 1.9 0 3.6-.7 1.2-2.1 2.4-3.1 2.7-1.1.4-1.5 1-1 1.7s.6 3.4.2 6.2c-.6 4.7-.6 4.8-.7 1.1-.1-2.2-1-4.8-1.9-5.9-1.7-1.8-1.7-1.9 0-2.8.9-.6 1.7-1.8 1.8-2.7 0-1 .3-1.2.6-.5 1 2.6 2.4 1.2 1.8-1.7-.6-2.8.1-5.7 1.2-4.6.2.2.3.6.1.9zm-7.8 17.8c0 4.5-.2 5-1.5 3.9-2.1-1.8-2.7-.8-1.5 2.4 1.3 3.5 1.3 4.6-.1 4.6-.5 0-.7-.5-.4-1 .3-.6.1-1-.5-1-.7 0-1-1.5-.8-3.8.2-2.5.8-3.7 1.8-3.7.9 0 1.6-1 1.7-2.5.2-3.6.2-4 .8-4 .3 0 .5 2.3.5 5.1zm14 5.9c0 .5.5 2.1 1.1 3.7.8 2.2 1.2 2.4 1.9 1.3.8-1.2 1-1 1 .7 0 1.5-.6 2.3-1.7 2.3-1.5 0-1.6.2-.3 1 1.5.9 1.6 1.3 1.9 4.7.1 1.5.3 1.6 1 .3.6-.8.7-1.8.5-2.2-.3-.4 0-.8.5-.8.6 0 1.1.8 1.1 1.7 0 1 .3 2.9.7 4.3.6 2.2.5 2.4-1 1.1-1.8-1.4-2-1-1.7 2.6.2 2.4-.7 2.6-4.9 1.4-2.3-.6-2.4-1.1-2.6-7.9 0-3.9.3-7.2.8-7.2.6 0 .7-2 .3-4.6-.3-2.8-.2-4.3.4-3.9.6.3 1 1 1 1.5zm8.6.4c.3.8.4 3 .2 5.1l-.3 3.6-1.9-3.5c-1.8-3.5-1.7-6.6.4-6.6.6 0 1.3.6 1.6 1.4zm-185.2 11.2c.5 1.2.1 1.4-1.7.9-3.5-1.1-4.4-2.5-1.5-2.5 1.4 0 2.9.7 3.2 1.6zm127.6-.6c1.3.9 1.3 1 0 1-1.2.1-1.1.4.4 1.5 1.1.8 1.7 1.7 1.4 2.1-.7.7-4.2-2.7-4.5-4.4-.4-1.4.7-1.5 2.7-.2zm-182.3 3.5c0 .8-.2 1.3-.5 1-.2-.2-2 .2-3.9 1-5.1 2.2-5.4 1.8-.8-1 4.7-2.9 5.2-3 5.2-1zm-46.2.5c.4.6 1 .8 1.5.5.4-.3 1.8 1.1 3 3.1 1.9 3 2.1 4 1.1 6.2l-1.2 2.7 2.1-2.5c2.3-2.9 2.6-1.7.5 2-.8 1.4-1.4 3.4-1.4 4.5 0 1.8.1 1.8.9-.3 1.3-3.2 2.7-2.7 2.2.8-.2 1.6-.9 3-1.4 3-.7 0-.7.4-.1 1.2 1.2 1.5-1.3 15.1-2.7 15.6-.5.2-.6 1.1-.3 2 .3.9-.3.6-1.5-.9-1.1-1.4-2.4-4.3-2.7-6.5-.9-4.4-2.4-7.8-3.2-7-.3.3-.1 1.2.6 1.9.6.8 1.4 4.1 1.7 7.5.5 4.5 1 5.9 2 5.5 1.8-.7 1.8 2.4 0 5.9-.8 1.4-1.1 3-.7 3.5 1.5 1.6 3.2 12.4 2.6 15.5-.6 2.7-.9 2.9-1.7 1.4-.6-1-.8-2.5-.5-3.5.2-.9-.2-2.2-.8-2.8-1-.9-1.4-.7-1.8.8-.3 1-.1 1.7.4 1.3 1.2-.7 1.1.7-.1 2.6-.7 1.2-1.2.7-2.5-2.2-.8-2.1-1.5-4.3-1.5-4.9 0-.7-.3-1-.6-.7-.3.3.3 3.2 1.2 6.4 1 3.3 1.6 7.1 1.5 8.6-.1 1.4.3 2.9.9 3.3.7.5.9-.2.5-2.2-.5-1.9-.4-2.4.3-1.4.5.7 1.5 1 2.1.7.6-.4 1.1-.2 1.1.3 0 .6-.5 1.1-1.1 1.1-.6 0-.8.7-.5 1.6.4 1 .2 1.3-.6.8s-.9-.2-.5.9c.7 2-.1 4.7-1.4 4.7-.5 0-.8-.3-.7-.8.1-.7-.4-2.3-2.3-7-.6-1.5-.5-2.2.2-2.2.8 0 .7-.5-.1-1.5-.7-.8-1.8-1.5-2.5-1.5-.8 0-1.6-.6-1.8-1.3-.3-.6-.3.4 0 2.3s1 4.3 1.5 5.4c.8 1.4.7 1.7-.4 1.4-.7-.3-1.4-1.9-1.6-3.6-.2-1.8-.7-3.2-1.1-3.2-.4 0-1.3-2.4-2-5.3-.7-2.8-2.4-8.8-3.6-13.2-1.3-4.4-2.7-10.3-3.1-13-.3-2.8-1.5-8.6-2.5-13-1.9-7.9-2.5-15.5-1.2-14.2.3.4 1.2.2 1.9-.4.9-.8 1.8-.5 3.4 1.1 2.6 2.6 4.1 1.9 11.1-5.9 5.6-6.2 6.4-6.7 7.4-5.1zm121.9 2.7c-.5 3-3.1 5.5-5.2 5.1-2.4-.5-1.7-2.3 1.1-2.6 2.4-.3 4-2.2 1.9-2.2-.5 0-.9-.7-.9-1.5s.8-1.5 1.8-1.5c1.4 0 1.7.6 1.3 2.7zm21.4.2c3.6 1.5 4.2 3.1 1.1 3.1-1.5 0-1.9.5-1.5 1.5.3.8.4 1.5.2 1.5-.3 0-1.2.3-2.1.7-1.5.5-1.7.1-1.3-3 .2-2.1 0-3.7-.4-3.7s-.8-.5-.8-1.1c0-.6.3-.9.8-.7.4.3 2.2 1 4 1.7zm-27.8 0l2.5.7-2.7.7c-2.9.8-3.6 2.1-1.8 3.2.6.4.8 1.1.5 1.6-.4.5.2.9 1.2.9 1.4 0 1.5.2.5.9-1 .6-.9 1 .7 1.4 2.2.5 3 3.7 1 3.7-.6 0-.9-.7-.5-1.5 1.2-3.2-1.5-1.3-2.8 2-.8 1.9-2.2 3.5-3 3.5-.9 0-1.6.7-1.6 1.5s-.7 1.5-1.5 1.5c-1.2 0-1.4-.6-.8-2.8.5-1.5.7-5.8.6-9.6-.1-3.8 0-7.3.3-7.8.6-.9 3.9-.9 7.4.1zm37.6 5.8c-.4.5-1.3.8-1.9.8-.7 0-1.2 1-1.1 2.3.1 2.7-1.2 2.9-2.1.2-.9-2.7.1-4 3.2-4 1.5 0 2.3.3 1.9.7zm-75.7 3.2c2 1.8 2.8 3.2 2.1 3.6-.6.4-1.8.1-2.6-.6-1.9-1.5-3.1-.4-1.5 1.5 1.2 1.4 4 1.5 7.6.1 1.1-.5 1.7-.5 1.3 0-.4.4-.3 1.4.3 2.1 1.3 1.6.5 4.4-1.1 4.4-.6 0-.8-.6-.4-1.3.4-.6.3-.9-.1-.4-.5.4-1.8-.2-3-1.3-1.9-1.8-2.3-1.9-2.8-.6-.4.9-.2 1.6.3 1.6 1.6 0 6.4 5 5.5 5.8-.4.4-1 .1-1.2-.6-.5-1.3-3.3-1.7-3.3-.4 0 .4.6 1.4 1.3 2.2 1 1.2.9 1.2-.6 0-1-.7-2.2-2.1-2.8-3.1-.8-1.5-.6-1.7.8-1.2 1.6.6 1.6.4-.1-1.6-1.2-1.3-2.2-1.7-2.6-1.1-.8 1.3-7.6-1.4-8.2-3.2-.3-.7.7-1.9 2.1-2.6 1.4-.7 3.7-1.9 5.1-2.7l2.4-1.4-2.4-1c-1.4-.6-1.8-1-.9-1 .8-.1 3 1.2 4.8 2.8zm63.6.2c-.4.6.1 1.6 1 2.3 1.4 1 1.5 1.6.6 3.4-1.3 2.4-3.6 3.1-2.8.8.3-.8.2-1.6-.3-1.8-1.1-.4 0-5.8 1.2-5.8.5 0 .6.5.3 1.1zm12.8-.5c.3.4.1 1.6-.5 2.8-1.1 2-1.1 2-1.8.1-1.1-2.8.5-4.7 2.3-2.9zm126.4 2.4c-.5 2.2-.3 3 .8 3 .7 0 1.7.5 2.1 1.2.5.8-.5.9-3.4.5-2.3-.3-4.5-.1-4.8.4-.3.5-1 .9-1.7.9-.8 0-.8-.3.1-1.2.7-.7 1.2-2.5 1.2-4s.4-2.8 1-2.8c.5 0 .7.7.4 1.5-.4.8-.1 1.5.5 1.5s1.1-.9 1.1-2c0-1.2.7-2 1.6-2 1.3 0 1.5.7 1.1 3zm-120.9 1.7c-2.2 2.1-2.6 2.3-2.4.8.3-1.9 3.6-4.8 4.5-4 .3.3-.7 1.7-2.1 3.2zm-96.8 2.1c0 .4-.9 1.3-2 2s-2 1-2 .8c0-.2-.3-1.1-.6-2-.5-1.2 0-1.6 2-1.6 1.4 0 2.6.3 2.6.8zm155.3 1.6c.3.8-.2 2-1.1 2.8-1.5 1.2-1.6 1.1-.3-.5.7-.9.9-1.7.3-1.7-1.1 0-12.2 12.7-12.2 14 0 .5.7.7 1.5.4.8-.4 1.5-.1 1.5.5s-.8 1.1-1.9 1.1c-1 0-2.4.6-3 1.3-1.4 1.8-5.7 1.4-5.2-.4.2-.8.6-2.6.9-4.2.3-2.1 1-2.7 2.9-2.7h2.5l-2.2 3.5c-1.2 1.9-1.8 3.5-1.3 3.5s1.7-1.5 2.7-3.3c1.5-2.4 13.4-15.7 14.2-15.7.1 0 .4.6.7 1.4zm-66.9 1.2c1.3.5 1.4.9.5 2-1.6 2-2.9 1.7-2.9-.6 0-2.2.1-2.3 2.4-1.4zm74.6 0c0 .3-1.6 2.1-3.5 4-1.9 1.8-3.5 3.9-3.5 4.6 0 .7 1.4-.4 3.1-2.5 1.7-2 3.5-3.7 4.2-3.7.6 0-.2 1.4-1.9 3.1-2.2 2.5-2.4 2.9-.8 2.1 1.2-.6 2.4-.8 2.8-.5.3.3.6.1.6-.5s.9-1.6 1.9-2.2c1.7-.8 1.9-.7 1.6.8-.3 1.5.2 1.8 2.1 1.4 1.8-.3 2.4 0 2.4 1.3 0 .9 1 2.5 2.2 3.4 3 2.5 1.8 5.3-1.9 4.5-2.2-.4-3.1 0-4.1 1.6-.7 1.2-1.1 2.4-.8 2.7.3.3-.4 1.3-1.5 2.2-1.3 1-1.8 2.2-1.4 3.4 1 2.4 1.8 2.1 3.6-1.6.9-1.7 2.6-3.7 3.9-4.4 1.3-.6 2.7-1.9 3.2-2.7.5-.9 1.5-1.6 2.3-1.6.7 0 1.6-.6 1.8-1.3.6-1.3 1 1.6.8 4.5-.1.9.7 1.9 1.9 2.3 1.1.3 2 1.1 2 1.7 0 .6-.6.5-1.6-.3-1.4-1.1-1.8-1-2.7.6-.5 1-1.2 3.9-1.4 6.4-.2 2.6-1.1 5.7-2.1 7.1-.9 1.4-1.6 3.8-1.7 5.5 0 1.8-.5 2.9-1.2 2.8-.8-.2-1 .4-.6 1.4.5 1.3.2 1.5-1.5 1.1-1.6-.4-1.9-.2-1.5 1 .5 1.1.3 1.3-.7.7-.9-.5-1.1-.4-.6.4.4.6 0 1.4-.8 1.7-.9.3-1.4.9-1.2 1.3.3.4-.4 1.3-1.6 2-1.7 1-1.5.3 1.3-4.9 1.7-3.3 3-6.3 2.7-6.6-.3-.3-1.2.9-1.9 2.5-.8 1.7-1.7 3.1-2.1 3.1-.5 0-.8.6-.8 1.4 0 .8-1.2 2.8-2.6 4.3-2.5 2.7-2.5 2.8-1.8.4.3-1.4 1-2.9 1.5-3.5 5.6-6.7 6-7.6 3.3-7.6-1.9 0-5.4 3.7-5.4 5.7 0 .7-1.1 1.3-2.5 1.3-3.1 0-3.2-1.1-.1-4.1 1.3-1.4 2.6-3.3 2.8-4.4.1-1.1.9-2.5 1.7-3.1 1.2-.9 1.1-1.4-.6-3.1-1.8-1.8-3-8.3-1.5-8.3.4 0 .8-1.2.8-2.6.1-1.4.9-3.3 1.8-4.3 2.2-2.4 2.8-5.8 1.1-5.8-.8 0-1.7.7-1.9 1.4-.3.8-.1 1.1.4.8.6-.3 1-.1 1 .4 0 .6-.4 1.1-.9 1.1s-1.4 1.3-2.1 3c-.7 1.6-1.6 3-2 3-1.6 0-3.9 6-3.5 9.1.3 2.1 0 2.9-.8 2.6-.7-.2-1.8.8-2.4 2.2-1.2 2.5-1.3 2.5-.7-.9.4-1.9 1.7-6.4 3-10 2.3-6.3 2.3-6.4.3-4l-2.2 2.5.8-2.5c.4-1.4 1.4-3.9 2.3-5.5 1.3-2.7 1.3-2.9 0-1.7-1.9 1.5-4.3 7.7-6.2 15.8-.7 3.4-2.3 7.1-3.5 8.3-1.8 1.8-2.1 1.9-2 .3.1-2.1 1.7-6.2 1.8-4.5.2 2.4 1.6 1.3 1.7-1.2.2-2.9-2-3.4-3.5-.8-1 1.7-1 1.7-1.1-.1 0-2.7 4-16.9 5.1-18.1 1.4-1.4 1.1 2.3-.6 7.9-1.7 5.7-1.9 8.5-.6 7.1 1-1 1.5-3.2 2.8-10.5.9-5.5 1.9-6.8 5.2-6.6 2.8.2 6.4-2.9 3.8-3.2-5.4-.7-6.4-.5-8 1.3-1.8 1.9-1.8 1.9 0-1.3 1-1.8 2.7-4.1 3.8-5 1.1-.9 1.4-1 .8-.2-1.6 1.8-1.7 3.1-.1 2.7.7-.1 2.7-2.1 4.6-4.5 2.9-3.7 5.2-5.3 5.2-3.6zm-116.9 8.4c.5 0 .9.7.9 1.6 0 1.3-.3 1.4-1.3.5-.8-.6-1.8-.7-2.2-.3-.5.4-.5-.1-.2-1.1.4-1 .8-2.4.8-3 .1-.7.3-.4.6.5.2 1 .9 1.8 1.4 1.8zm-11.1 2.2c-1.6 1.3-2.1 2.6-1.8 4.8.3 1.9 0 3.1-1 3.5-2.4.9-2.6-.2-1.2-4.7 1.4-4.5 5.2-8.6 5.9-6.6.2.6-.6 2-1.9 3zm55.3-.9c-.3 1.9.2 4.9 1 7 1.6 3.6 1.5 3.7-.6 3.3-1.8-.2-2.3-1.2-3-5.7-.6-4.5-.5-5.6 1-6.6 2.3-1.7 2.2-1.8 1.6 2zm-96.9 1.2c-.8 2 .6 1.9 2.1-.1.9-1.3 1.6-1.4 3.1-.6 1.8 1.1 1.8 1.1-.2 1.2-2.5 0-3.4 1.7-3.5 6.3 0 3.2 0 3.2-1.1.7-1-2.4-1-2.4-1.8-.5-.7 1.7-.9 1.5-.9-1-.1-3.8.9-7.5 2-7.5.5 0 .6.7.3 1.5zm45.2 1.4c-1.5 1.6-2.3 3-1.6 3.3.8.2.8 1.2-.1 3.6-1.1 3.2-3.6 4.4-3.6 1.7 0-.8.4-1.2.8-1 .4.3.9-.2 1.2-.9.3-.8.1-1.6-.5-1.8-.6-.2-.5-1.7.5-4.1 1.2-2.7 2.2-3.7 3.8-3.7 2.2 0 2.2.1-.5 2.9zm-31 8.2c.1 3.2-.3 5.6-.7 5.3-.5-.3-.9-2.3-.9-4.5 0-2.3-.7-4.7-1.5-5.6-2-1.9-1-3.6 1.3-2.2 1.3.8 1.7 2.6 1.8 7zm16.7-2.9c2.1 2.2 2.2 3 .1 2.6-.9-.2-2.2-2.1-2.9-4.3-.9-2.6-.9-3.3-.2-2.1.7 1.1 2 2.8 3 3.8zm54.1-2.6c.9.8 1.4 2 1.1 2.5-.8 1.2-3.5 1.2-3.5 0 0-.5-.3-1.6-.6-2.5-.8-2.1 1-2.1 3 0zm107.2.1c1 1.5 1.5 1.6 2.5.5 2.3-2.1 3-1.3 2.3 2.5-.4 2.1-.8 5.6-.9 7.8-.1 2.2-.5 4.7-.8 5.5-.3.8-1.1 3.5-1.7 5.9-.7 2.4-1.8 5.5-2.7 6.7-.8 1.3-1.2 2.8-.8 3.4.3.5-.6 2.8-2.2 5-2.8 3.9-4.3 5-4.3 3 0-.6-1.3-.1-3 1.1-3.5 2.6-3.2 3.9.4 1.6 2.1-1.4 2.5-1.4 3-.2.5 1.4-.6 2-2.8 1.6-.4-.1-1.3.5-2 1.3-1.3 1.9-8.3 3.5-7.2 1.8.4-.7 1.3-1.2 2.1-1.2s1.6-.4 1.9-.9c.3-.4-.7-.6-2.2-.4-2.2.4-2.4.2-1.2-.7 1.3-.9 1.2-1-.5-.6-8.7 2.3-10.4 2.4-12 .6-1.6-1.8-1.5-1.8 2.2-1.5 6 .5 15.2-4.5 15.3-8.3 0-.6.7-1.2 1.5-1.2 1.4 0 4.8-5.9 4.4-7.6-.1-.5.3-2.2.9-3.7.7-1.6 1.2-3.2 1.2-3.7s.6-.7 1.4-.4c1.4.5 1.1 3.9-.6 6.1-.5.7-.5 1.4 0 1.7 1.1.7 4.9-10.7 6.1-18.2.4-2.8.4-5.2 0-5.2-.5 0-.9.7-.9 1.7 0 2.8-1.2.6-1.4-2.6-.2-3.5.2-3.8 2-1.4zm-143.7 3.5c.1.5-.6.8-1.4.8-1.5 0-2.1-3.1-.8-4.4.7-.6 2 1.7 2.2 3.6zm-37.5 2.7c.9 3.1-.1 5-2.6 5.1-1.1 0-1-4.2.2-6 .6-.9.5-1.7-.3-2.3-.8-.6-.8-.7.3-.4.8.2 1.9 1.8 2.4 3.6zm74.9-.6c1.9 1 2.3 1.7 1.6 2.8-1.5 2.3-1 3.7 1.3 4.1 2.1.3 3.1 2.8 2.1 5.4-.3.9-1.4.3-3.8-2-2.4-2.4-3.4-4.4-3.7-7.4-.2-2.3-.3-4.2-.2-4.2.1 0 1.3.6 2.7 1.3zm62.2 3.1c-.5 2.2-1.3 3.6-2.2 3.6-1.5 0-1.5-.4.9-5.2 1.7-3.4 2.1-2.9 1.3 1.6zm-43.5 2.5c0 2.1 14.3 17.2 20.7 21.7 2.5 1.8 5.3 3 6.2 2.7 1.3-.4 1.3-.3.2.5s-1 1.2.8 2.1c1.2.7 1.9 1.6 1.6 2.1-.9 1.5 1.7 2.3 2.6.9.8-1.2 1.2-1.1 2.3.3.7 1 1.7 1.8 2.2 1.8.5 0 2.5.8 4.4 1.8 3.2 1.7 11.6 3.8 18 4.4 1.4.2 2.4.6 2.3 1-.2.5-.5.8-.8.8-9.7 0-12.7-.3-10.5-1 2.4-.8 2.3-.8-.8-.9-1.8-.1-5.1-1-7.3-2.2-2.3-1.1-4.3-1.8-4.7-1.5-.3.3 1.1 1.2 3.1 2.1 2 .8 5.2 2.6 7.3 4 2 1.4 4.6 2.5 5.8 2.5 2.2.1 5.6 2.2 5.6 3.5 0 .4-.9.5-2 .2s-2-.2-2 .3c0 .4 3.3 1.1 7.3 1.5 5.4.6 6.7 1 5.2 1.6-1.4.6-.7.7 1.9.3l3.9-.6-1.7 2.7c-1.7 2.6-1.7 2.6.2 1.6 3.2-1.7 3.4-3.9.4-5l-2.7-1.1 2.7.4c2.9.3 5.7-1.7 3.9-2.8-.5-.4-1.2-.2-1.6.4-.3.5-2.5 1-4.9 1-3.1 0-4.3-.4-4.3-1.5 0-.8.9-1.5 2-1.5 1.3 0 1.7-.5 1.3-1.5-.3-1 .1-1.5 1.3-1.5 1.1 0 2.8-.3 3.8-.6 1.1-.3.8 0-.6.9l-2.3 1.4 2.3.6c1.3.4 3.5.7 4.8.7 1.6 0 2.1.4 1.7 1.5-.3.9 0 1.5.9 1.5 4.4 0 1.1 5-4.7 7-2 .8-3.5 1.7-3.2 2.2.3.4-1.1.8-3 .8-2 0-3.6-.5-3.6-1.1 0-.6-1.1-.8-2.8-.4-2 .4-3.6 0-5.4-1.5-1.4-1.1-3.4-2-4.3-2-.9 0-1.3-.5-1-1 .4-.6-.5-1-1.9-1-3.5 0-3.3-2 .2-2.1 2.3-.2 2.4-.2.5-.6-1.3-.2-2.3-.9-2.3-1.4 0-.5-.7-.9-1.6-.9-.9 0-1.4-.6-1.2-1.2.3-.7-.2-1.9-1-2.8-1.6-1.5-2.6-2.1-13.2-7.6-3.6-1.9-7.8-4.5-9.5-5.9-2.9-2.6-2.9-2.6-.2-.9 1.5.9 3 1.4 3.4 1 .3-.3.4-.7.2-.9-5.6-3.8-8.7-5.7-9.7-5.7-1.4 0-7.8-6.1-7.4-7.2.1-.4-.5-.8-1.3-.8-1.9 0-1.9.9.2 3.2.9 1 1.2 1.8.6 1.8-.5 0-1.8-.9-2.8-2-1.8-2-4.7-2.8-4.2-1.1.1.5-.1.9-.5 1-2.3.3-3 0-2.5-1.3.3-.8.1-1.6-.5-1.8-1.6-.6 0-2.8 1.9-2.8.9 0 2.4.7 3.3 1.5 1 .9 2.4 1.3 3.3.9 2.3-.8 1.1-2.4-1.7-2.4-1.7 0-2.8-1.1-4.4-4.4-2.3-4.5-3-9.2-1.2-8.1.6.3 1 1.4 1 2.4zm-18 6.6c.7 1.4 1 2.8.7 3.2-.8.8-3.6-2.6-3.7-4.5 0-2 1.6-1.4 3 1.3zm-104.5 2.5c.5-.1 1.1.4 1.4 1.2.2.7 0 1-.4.6s-1.4 0-2.2.8c-2 1.9-2.1 1.7-1.5-3.1.4-3.2.7-3.6 1.1-1.7.3 1.3 1 2.3 1.6 2.2zm55-2.4c1.4.6 1.4.8-.2 2.7-1.3 1.4-1.4 2.1-.6 2.4.9.3.9 1 .2 2.6-1.2 2.5-5.9 6.3-5.9 4.7 0-.5.5-1 1-1 .6 0 1-.5 1-1.1 0-.6.7-1.7 1.5-2.6 3.3-3.3.3-2.4-3.7 1.1-6.9 5.9-7.1 6.1-9.8 6.3-1.4.1-4 .5-5.7.9-3.7.7-4.6-1-1-2 1.8-.5 2-.8.7-1.6-1.9-1.2-.8-1.3 2.4 0 1.4.5 2.6.6 2.6.1 0-.4 1.1-1.3 2.5-1.9 3.6-1.7 4.5-1.4 1.5.3-1.4.8-2 1.4-1.5 1.4.6 0 2.1-.6 3.4-1.3l2.4-1.4-2.3-.7c-2-.6-2.1-.9-.7-1.7 1-.5 2.1-.7 2.6-.4.5.4.7-.3.4-1.4-.4-1.5 0-2 1.4-2 1.1 0 2.8-.9 3.8-2 2.1-2.3 1.8-2.2 4-1.4zm94.8 10.1c.4.7 1.2 1.3 1.7 1.3 1.7 0 1.1-2.1-1.2-4.1-2.1-1.6-2.1-1.8-.5-1.9 1.2 0 2.3 1.1 3 3 .9 2.4 1.5 2.8 3.4 2.4 1.8-.5 2.3-.2 2.3 1.4 0 1.2-.4 2.3-.9 2.6-1 .6-6.7-2-7.6-3.5-.4-.5-1.3-.9-2.1-.9-1.5 0-6.3-4.8-6.4-6.4 0-1 7.2 4.2 8.3 6.1zm-40.7-1.6c.8 1.7 1.3 3.6 1.1 4.2-.3 1-4.7-6.2-4.7-7.8 0-1.3 2.1.8 3.6 3.6zm-10.1 4.1c.2.7-.2 4-.9 7.3l-1.4 6-.1-7.3c-.1-4.3.3-7.2.9-7.2.6 0 1.3.6 1.5 1.2zm57.3 5.7c.2.7-.4.8-1.7.3-1.1-.4-1.9-1-1.8-1.4.1-.4-.7-1.5-1.8-2.4-1.1-.9-.5-.7 1.5.5 1.9 1.1 3.6 2.5 3.8 3zm10.4-1.4c1.5 0 2 1.5.4 1.5-.9 0-1.5.4-1.2.9.3.5 0 1.1-.7 1.4-.9.3-1.4-.5-1.5-2.5-.2-2.2.1-2.7 1-2.1.7.4 1.6.8 2 .8zm-141.5 1.1c1.1 1 2.5 1.3 4.2.9 6-1.4 6.4-1.4 3.3 0-5.3 2.5-11.8 3.9-13.8 3-1.6-.6-1.4-.9 1.6-1.8 1.9-.5 2.9-1.2 2.2-1.4-.6-.3-1-.9-.6-1.4.7-1.3 1.3-1.1 3.1.7zm64.2 9.1c.1 2.4-1.4 3.2-2.1 1.1-.2-.6-.2-2.5 0-4.2.4-2.7.6-2.8 1.3-1.1.4 1.1.8 3 .8 4.2zm76.6-3.3c1.9.8 3.5 2 3.5 2.5 0 .6 1 1.2 2.3 1.2 1.5.1 1.7.3.5.6-1.5.4-6.7-1.9-10.8-4.6-2.3-1.6.4-1.4 4.5.3zm-69.7 9.1c-.1 5.1.3 7 1.8 8.7 1.4 1.5 1.5 2.2.7 2.5-.7.3-1.3.9-1.3 1.4 0 1.2 4.7 1.2 5.5-.1.3-.6 1-1 1.6-1 1.6 0 .9 4.4-1.5 9.5-1.4 2.7-2.2 5.4-1.9 5.9.4.5-.1.7-1.1.3-1-.4-2.2-.7-2.8-.7-.5 0 0-1.2 1.1-2.7 1.2-1.4 1.9-2.9 1.5-3.2-.3-.3-1.4.5-2.5 1.8-1 1.3-1.9 2-1.9 1.5 0-.4-.6.1-1.4 1.2-.8 1-1.7 1.6-2 1.3-.9-.8 1.7-8.1 3.1-8.6 1.6-.6 1.7-3 .2-3.5-2.6-.9-2-20.8.5-20.8.3 0 .5 2.9.4 6.5zm133.7-.5c-.3.4.2 1 1 1.4.8.3 1.5 1.1 1.5 1.7 0 .7-.3.9-.7.6-.3-.4-1.3-.1-2.1.6-1.3 1-1.4.9-.8-1 .5-1.5.2-2.4-1-3.1-1-.5-1.4-1.4-1-2.1.6-.9 1.1-.9 2.2 0 .7.6 1.2 1.5.9 1.9zm-108.1 4.4c-.3.7 0 2.5.6 4.1.6 1.5.8 3 .6 3.2-.5.6-3.3-5.8-4.3-9.6-.6-2.6-.6-2.6 1.5-.8 1.1 1.1 1.9 2.4 1.6 3.1zm97.6-.6c-.7 3.8-3.6 9.2-5 9.2-.4 0-2.7 1.8-5.1 4-2.4 2.3-3.6 3.8-2.6 3.4 1.3-.5 1.6-.2 1.1 1-.3.9-.9 1.6-1.3 1.6-.3 0-1.2.9-1.9 2.1-1 1.5-.3 1.2 2.7-1.1 2.2-1.8 3.9-3.6 3.8-4.1-.2-.8 3.7-5.6 10.6-13.2 3.5-3.9 4.5-3.9 3.1-.3-.3.9-1.2 1.6-2 1.6s-2.2 1.7-3.2 3.7c-.9 2.1-2.4 4.4-3.3 5-2 1.5-5.5 8.2-5.4 10.3 0 .9.8 1.4 1.8 1.2 2.2-.4 2.2 2.4 0 3-1 .3-2.1.4-2.4.4-1-.1-4.9 3.6-4.9 4.6 0 .5 1.4.1 3.1-.7 1.7-.9 3.6-1.4 4.2-1.1.7.2.5.5-.4.5-1.3.1-3.5 3.4-4.5 7.1-1.3 4.4-1.8 5.1-3.3 4.4-.9-.3-2.2-.7-2.8-.7-.7 0-1.3-1.2-1.3-2.6-.1-2.8-3.4-7.2-6.5-8.6-1.8-.7-1.8-.8-.2-1.2.9-.3 1.7-1 1.7-1.7s1.1-1.8 2.4-2.4c2.9-1.3 5.4-5.2 3.4-5.2-1.8 0-3.9-3.6-3.2-5.3.6-1.8 7.9-7.7 9.3-7.7.6 0 .7.7.4 1.7-.5 1.2-.3 1.4.8.8.8-.5.5.2-.6 1.5l-2 2.4 2.5-1.6c1.4-.9 2.4-2.2 2.2-2.8-.1-.6 1-2.8 2.6-4.8s3.4-4.7 4.1-6c1.8-3.4 2.9-2.6 2.1 1.6zm-131.4-.2c-.3.7-.1 1.6.4 1.9 1.5.9 1.2 2.5-.5 2.5-1.1 0-1.5-1.1-1.5-3.6 0-2.2.4-3.3 1.1-2.9.6.4.8 1.3.5 2.1zm144.5 4.5c-1.1 1.8-1.8 3.6-1.6 4 .3.4-.8 1.4-2.3 2.3-2.6 1.7-2.6 1.7-.7-.1 1.1-1 2-2.3 2-2.8 0-1.3 3.8-7.6 4.3-7.1.1.2-.6 1.9-1.7 3.7zm-116.1 1.5c0 .8.4 1.3.9.9.9-.5 2.7 3.3 1.9 4.1-.3.2-1.8.7-3.5 1-2.6.5-3.1.2-3.6-1.7-.4-1.5 0-3 1-4.1 2-2.2 3.3-2.3 3.3-.2zm8.5 8.4c.4 1.7 1.1 2.8 1.6 2.5.5-.4.6.1.3.9-.9 2.3-3-.2-3.6-4.1-.6-4 .8-3.4 1.7.7zm5.3-.7c.2 1.2-.3 1.7-1.7 1.7-1.2 0-2.1-.6-2.1-1.3 0-3.1 3.2-3.4 3.8-.4zm95.1 1.4c-4.1 5.2-6.7 7.5-7.3 6.4-.4-.6-.2-1.1.4-1.1.6 0 2.4-1.6 4.1-3.5 3.2-3.6 5.3-4.9 2.8-1.8zm-124.9 13.6c0 1-.7 2-1.5 2.3-1 .4-1.3 1.4-.9 3 .6 2.4-.9 3.4-2.1 1.4-.3-.6-1.7-1-3-1-2.7 0-4.2-2.8-1.9-3.7.8-.3 2.1.2 2.8 1.2 1.8 2.5 3 .3 2.2-4-.6-3.3-.6-3.3 1.9-2.2 1.3.7 2.5 2 2.5 3zm-116 10.3c3.1 2 5.8 2.9 8.9 2.9h4.3l.5 5.5c.3 4 1.4 7.1 4 11.3 2.7 4.5 3.3 6.1 2.3 6.7-1 .6-.8 1.9 1.1 5.6 1.2 2.7 3 5.4 3.8 6.1.9.7 1.1 1.2.4 1.3-1.3 0-.8 3 1.4 7.8.8 1.8 1.5 4.1 1.6 5.2.1 1.1.7 2.2 1.4 2.4.7.3 1.3 1.3 1.3 2.3 0 1 1 2.4 2.1 3.1 1.8 1.2 2.1 2.1 1.6 5.8-.5 4.5.6 6.8 1.7 3.8.5-1.4 1.1-1.3 3.9.8 1.7 1.4 4.2 2.8 5.5 3.2 1.3.5 2.1 1.3 1.9 2.1-.8 1.9 9.6 11.4 10.7 9.7.3-.5-1.7-2.3-4.4-4-2.8-1.7-5-3.6-5-4.2 0-1.4 1.2-1.3 3.6.4 1.1.8 3.8 1.5 6 1.5 2.1-.1 6.8.4 10.4 1 3.6.6 6.8 1.1 7.3 1.1.4 0 .7.7.7 1.6 0 1.3.7 1.5 3 1 2.4-.4 3.2-.2 3.7 1.2 1 2.8 3.5 5.2 5.5 5.2 1 0 1.8-.5 1.8-1.1 0-.6.7-.9 1.5-.5.8.3 1.5.1 1.5-.4 0-.6-.4-1-1-1-1.3 0-1.3-3.7 0-4.5.5-.3 1.8 0 2.9.6 1.5 1 2.4.9 4.6-.5 2.4-1.6 2.8-1.6 4.4-.2 2.3 2.1 4.8 2 7.8-.4 1.9-1.5 3-1.7 4.4-.9 1 .5 1.9 1.4 1.9 1.9 0 1.7 5.2 1.1 6.6-.8 1.2-1.6 1.4-1.6 3.6.5 3 2.8 6.4 2.9 7.8.3 1.5-2.8 2.5-2.5 4 1 .8 2 2.3 3.3 4.7 4.1 3.3 1.1 3.5 1.4 3 4.5-.3 1.9-.2 3.4.4 3.4.5 0 .9.7.9 1.6 0 1 .6 1.3 1.9.9 1.3-.4 2 0 2.4 1.5.8 3 2.4 2.4 2.4-1 0-1.6-.4-2.7-.9-2.4-1.1.7-1-.7.1-2.5.9-1.5-.8-4.1-2.7-4.1-.5 0-1.2-1-1.5-2.3-.2-1.2-.8-3-1.2-4-.6-1.5-.4-1.7 1.9-1.1 1.9.4 3.3 0 5.7-2 1.7-1.4 3.9-2.6 4.8-2.6 1 0 2.8-.9 4.1-2 1.3-1.2 3.1-1.8 4.4-1.5 2.6.6 3.8-.2 5.3-3.6.7-1.5 2.3-2.9 3.8-3.3 3.4-.9 7.5-3.5 7.5-4.8 0-2.2 5.6-12.8 6.8-12.8.6 0 1.2-.6 1.2-1.3 0-.6.3-2.3.7-3.6.5-2 .3-2.3-1-1.8-1 .4-1.7.3-1.7-.2s.8-1.1 1.8-1.3c1-.3 3.2-3.5 5.1-7.4 5.8-12.1 7.6-15.4 7.9-14.5.2.5-.7 2.9-1.9 5.3-1.3 2.4-2.4 5.2-2.5 6.3-.2 2.9-2.3 7.7-4.1 9.7-1 1.1-1.3 2.6-.8 4.8.5 2.4.2 3.4-1.4 4.8-2.2 1.9-4.3 13-3 15.5.6.9.2 2.1-1.1 3.2-1.9 1.7-2 1.7-2.6 0-.4-1-.3-4 .3-6.7 1.1-5.7.2-5.1-1.6.9-1.2 4.4-.6 9.3 1.1 9.3.6 0 .8 1.3.4 3-.3 1.7-.2 2.9.3 2.6 1.4-.9 2.1 6.7.9 10.1-.7 1.8-1.5 3.3-2 3.3-.4 0-.5.7-.2 1.5.4 1.1.2 1.3-.9.9-1-.3-2.1.9-3.7 4-3.6 7.5-4.5 5.7-1.5-2.9.6-1.7.4-1.7-1.2.3-1 1.3-3 2.9-4.3 3.5-1.4.7-2.5 1.9-2.6 2.7 0 2.2-2.7 9-3.5 9-.3 0-1.8 1.1-3.3 2.5-1.5 1.4-3.9 3.1-5.4 3.9l-2.7 1.5 2.7-.3c1.4-.1 3.9-1.1 5.5-2.1 1.5-1 2.9-1.7 2.9-1.4.1.2 1.1-.4 2.3-1.5 1.1-1 1.8-2.3 1.4-2.9-.3-.5-.1-.7.5-.3.6.3 1.3.2 1.7-.4.4-.6 1-.8 1.5-.5.9.6 5.4-5.8 7.9-11.3 1.5-3.3 2.1-2.7 1.5 1.5-1.1 7.6-1.1 8.8-.4 10.3.5.9.2 2.3-.7 3.5-1.4 1.9-1.4 1.8-.7-.9.6-2.7.6-2.8-1.7-1.5-2.2 1.1-2.3 1.1-1-.4 1.2-1.5 1-1.6-2.4-.4-3.9 1.4-4.4 3.2-.9 3.2 2.1-.1 2.1 0-.3 3.2-1.4 1.8-3 3.3-3.6 3.3-.5 0-.2-.8.7-1.9 1.6-1.7 1.6-1.9 0-2.5-1.1-.4-2.6.2-4 1.5-1.2 1.1-2.6 1.9-3.1 1.6-.5-.3-1.5-.1-2.3.5-1.2.8-1.2.9.3.4.9-.3 1.7-.1 1.7.4 0 1-1.3 1.4-4 1.1-1.3-.2-1.3-.1 0 .8.8.6 1.1 1.1.5 1.2-3.1.2-5 .9-5.3 1.8-.2.6-1 1.1-1.8 1.1s-1.4.4-1.4.9c0 .4-1.9 1.6-4.3 2.5-4.9 1.8-6.1 2-5.3.7.4-.5-.3-.7-1.4-.4-1.1.3-2 1.2-2 2 0 1-.6 1.3-1.7.9-1-.4-1.4-.4-1 0 1 1.1-2.5 3.3-5.3 3.4-1.4 0-5 1.3-8 2.8-5.6 2.9-11.5 4.6-20.4 5.7-2.7.4-5.5.9-6.2 1.2-.8.3-1.4 0-1.4-.5 0-.6 1.5-1.2 3.3-1.4 1.7-.2-.8-.7-5.8-1.2-4.9-.4-10.4-1.3-12.2-1.9-2.6-1-.9-1.2 11.3-1.2 7.8 0 13.5.3 12.6.7-.9.4-3.5.7-5.7.9-2.9.1-1.9.4 3.5 1 6.1.7 7.7.6 8.6-.5.6-.9 1.9-1.3 3.2-.9 1.6.4 2.2.1 2.2-1.2 0-1.2-.5-1.5-1.6-1.1-1.9.7-5.4-.1-5.4-1.3 0-.5 1.1-.6 2.4-.4 1.3.3 4.9-.2 7.9-1.1 6.5-1.9 7-1.9 6.2-.6-.3.5-.2 1 .4 1 .5 0 1.2-.4 1.5-.9 1.2-1.8-2.7-2.1-8.2-.5-4.4 1.3-6 1.4-7.4.5-1.5-.9-2.6-.9-5 .4-1.7.8-5.2 1.6-7.7 1.6-4.6.2-4.6.2-1.1.9 3.4.7 3.4.7-1.2.9-2.6 0-5-.3-5.3-.9-.5-.9-3.1-1.1-12-1-1.6 0-3.2.5-3.5 1.1-.5.7-2.8.7-7.1 0-8.3-1.4-8.9-1.3-5.9.4 2.4 1.4 2.3 1.5-1.9.8-3.6-.5-4.3-.3-3.7.8.5.8.2.8-.6-.2-.7-.9-2.3-2.1-3.6-2.8-1.2-.7-2-1.6-1.7-2 .4-.8-2.7-2.1-6-2.6-2.7-.3-10.4-4.6-11.3-6.1-2.2-3.9-11.8-15.3-12.9-15.3-.7-.1-1.3-.5-1.3-1.1 0-.5-.6-.7-1.2-.5-.8.3-2-1.3-3.1-4-1.1-2.5-2.2-4.3-2.6-4-1.2.7-4.9-3.2-7-7.3-2.3-4.6-6.3-18.4-5-17.7 1.2.8 1.1-.2-.6-6-.9-2.7-1.7-9.8-2-15.7-.2-5.9-.7-11.8-1.1-13.2-.3-1.3 0-3.4.6-4.6 1.3-2.5.5-11.4-1.3-13.3-2.4-2.5-4.7-7.6-8.1-17.9-4-11.9-4.4-14.3-1.8-11.2.9 1.2 3.7 3.4 6.2 5zm214 1.5c0 .5-1.3.9-2.9.9-1.6 0-3.6.3-4.5.6-.9.3-1.6.2-1.6-.4 0-.6 1.2-1.4 2.8-2 2.9-1 6.2-.5 6.2.9zm-11.5 1.9c1.6.6 1.2.8-1.5.7-1.9 0-5.3.3-7.4.7-2.9.7-3.7.6-3.1-.3.4-.7 1.3-1 1.9-.8.7.3 1.9.1 2.7-.4 1.7-1.1 4.7-1 7.4.1zm-6.7 15.8c-2.2 5.6-11.5 22.2-12.4 22.2-1.7 0-2.5-2.7-1.7-5.8.4-1.5.7-5.2.7-8.2.1-5.4.1-5.5 3.6-6 1.9-.4 4.4-1.1 5.5-1.8 2.3-1.3 4.8-1.6 4.3-.4zm-18.8 4.3c0 2.7-.2 3-1.5 1.9-2.4-2-1.9-3.9 1.3-4.9.1-.1.2 1.3.2 3zm43 1.9c-.5 1.9-1.2 4.5-1.5 5.7-.5 1.4-.3 2.3.4 2.3.6 0 1.1.4 1.1 1 0 .5-.6 1-1.4 1-.8 0-1.7.6-2 1.2-.3.7-.2-.6.1-3 .4-2.8.2-4.2-.6-4.2-.6 0-1.1-.9-1.1-2.1 0-1.1.4-1.8.9-1.4.6.3 1.8-.5 2.8-1.9 1-1.3 1.9-2.3 2-2.2.1.1-.2 1.7-.7 3.6zm-52 1.5c.4-.3 1.3.9 1.9 2.5.5 1.7.7 3 .3 3-1 0-4.2-5.9-4.1-7.3.1-.7.3-.4.6.6.2.9.8 1.5 1.3 1.2zm-.4 8.1c-.3.8-1 1.4-1.6 1.4-1.1 0-1.4-4.3-.3-5.4 1-1 2.6 2.3 1.9 4zm49.9 7.4c-2 5.7-3.5 7.6-4.6 5.8-1.3-2-1.1-2.8.6-2.2 1.1.5 1.5-.1 1.5-1.8 0-2.3 2.8-7.3 3.6-6.5.2.2-.3 2.3-1.1 4.7zm-132 2.1c.4 1.1 1.3 2.6 2.1 3.4 1.8 1.7 1 3.7-1.1 2.8-1.9-.7-2 2.2-.3 4.1 1 1.1 2 0 4.9-5.8 3.7-7.2 6.1-8.9 6.7-4.9.2 1.3 1 2.3 1.9 2.3 1.1 0 1.4.6.9 2.2-.4 1.3-1 4.8-1.3 8-.5 5.3-.7 5.6-3.6 6.2-5 1-7.7.7-7.7-.9 0-1.7-2.6-2-3.5-.5-.4.6-2.8 1-5.3.9-2.6-.1-5.5.1-6.4.5-1.3.6-1.8.1-2.3-2.6-.9-5-.2-13.1 1.3-13.6.8-.2 1.2 1.1 1.4 4.5.1 3.9.2 4.2.5 1.4.3-2.6.7-3.1 1.4-2 .7 1.2.9 1.2.9 0 0-.8 1-3.3 2.1-5.7 2-3.9 2.4-4.1 4.5-3.2 1.3.6 2.6 1.9 2.9 2.9zm25-2.5c1.4 1.5 1.4 1.7-.2 2.9-1.7 1.3-1.7 1.4 0 2 1.8.8 5 7.1 4.4 8.8-.1.5-1 .2-1.9-.7-.9-.9-2.4-1.6-3.3-1.6-1.3 0-1.2.4.5 2.2 2.4 2.6 2.6 3.8.5 3.8-1.8 0-1.9 1.2-.4 2.7 1.9 1.9-5.9 2.8-8.9.9-1.9-1.2-1.4-7.4 1.2-13.5 1.3-3.1 2.7-6.4 3-7.4.7-2.1 3-2.2 5.1-.1zm15.7.1c.8 1 1.6 2.5 1.6 3.3 0 .8.8 3.5 1.8 6 1.5 4 1.6 4.9.3 7.5-1.1 2.4-2.1 3-4.9 3.2-1.9.1-4.4.3-5.5.5-1.8.3-2-.4-2.3-6-.2-4.5.2-7.1 1.2-8.8.9-1.3 1.6-3 1.6-3.9 0-.8.7-1.5 1.6-1.5.8 0 1.2-.5.9-1-1.1-1.7 2.1-1.1 3.7.7zm11.8 4.3c0 1.1.9 2.4 2.1 3 1.8 1 2 1.7 1.3 5.3-.4 2.3-.7 4.9-.6 5.8 0 1.1-.9 1.6-3.5 1.7l-3.5.1.4-6.4c.2-3.9 0-6.6-.6-6.8-.6-.2-.3-1.5.7-3.1 1.9-2.9 3.7-2.7 3.7.4zm37.8-.2c1.4 1.9 1.6 3.2.3 3.2-.5 0-1.2-.8-1.4-1.8-.3-.9-.5-.4-.6 1.3l-.1 3-1.5-2.9c-2-3.8-1.9-5.7.3-4.9.9.3 2.3 1.3 3 2.1zm-134.3.9c.4 1.6.8 3.6 1 4.5.2 1-.1 1.8-.6 1.8-1.1 0-2.9-4.3-2.9-7.1 0-2.9 1.9-2.3 2.5.8zm109.8-.4c.7 2.1.2 7.7-.7 7.6-1.8-.2-2.4 2.5-.9 3.6 1.3.9 1.3 1.6.4 3.3-.6 1.2-1.9 2.2-2.9 2.2-1.9 0-5.4-2-3.5-2 1.1 0 3.3-5.1 3.3-7.6 0-.8-.7-1.4-1.5-1.4-.9 0-1.5-.9-1.5-2.5s.6-2.5 1.5-2.5c.8 0 1.5-.6 1.5-1.4 0-1.7 3.6-1 4.3.7zm7.4-.7c.5 1.5.7 1.5 1.5-.1.9-1.5 1.1-1.5 2.4.3 2 2.9 2.8 9.6 1.5 12.1-1.6 2.9-4.2 2.8-3.4-.2 1-3.8.8-8-.2-8.4-.6-.2-1.2 1.8-1.3 4.8-.3 6.2-.6 6.9-3.7 6.9-3.4 0-3.8-1.3-2.1-7.1.9-2.8 1.3-5.6 1-6.1-.9-1.4.4-3.8 2.1-3.8.9 0 1.8.7 2.2 1.6zm12.3 5.9c0 1.8.4 3.5 1 3.7.6.2.6.8 0 1.8-.8 1.3-1 1.2-1-.3 0-.9-.4-1.7-1-1.7-.5 0-1 .7-1 1.6 0 3.3-2.4.6-2.7-3.1-.1-2.1-.5-4.5-.8-5.3-.3-.8 0-2.1.7-2.9 1.1-1.3 1.5-1.2 3 .7 1 1.2 1.8 3.7 1.8 5.5zm-122.8-4.1c1.3.9 1.4 1.6.6 2.4-.8.8-.6 2 .6 4.4 1.5 2.9 1.7 3 1.2.7-.4-1.8 0-3.2 1.4-4.4 1.7-1.6 2.4-1.7 4.5-.5 1.3.7 2.7 2.6 3 4.1 1 4.7 2.5 4.4 1.9-.3-1.1-9 3.5-9.1 6.1-.1.9 3.2 1.8 6.6 2.1 7.5.6 2.2-3.2 3.4-5.2 1.7-.9-.7-3.5-1.2-5.9-1-3.5.2-4.6-.1-5.5-1.8-.8-1.6-1.7-2-3.6-1.5-3.4.9-5.3-1.9-5.4-7.9 0-5 1-5.8 4.2-3.3zm167.8 8c0 .8-.4 1.8-1 2.1-.5.3-1 1.9-1 3.6 0 1.6-.4 2.9-1 2.9-.5 0-.7-.7-.4-1.5.4-.9 0-1.5-.7-1.5-1.2 0-1.2-.2-.1-.9.8-.4 1.3-1.2 1.2-1.7 0-.5.1-1.7.4-2.7.5-2.1 2.6-2.3 2.6-.3zm-31 1.7c0 .5-.7.9-1.5.9s-1.5.6-1.5 1.3c0 1.6-2.3 6.7-3.1 6.7-.3 0-1.2-1.5-2.1-3.3-1.5-3.2-1.5-3.4.6-4.8 4-2.7 7.6-3.1 7.6-.8zm-138.6 4.1c.7 1.2.6 2.1-.3 3.2-1.7 2-4.1.9-4.1-1.8 0-3.9 2.3-4.6 4.4-1.4zm127.2 5.9c-1.3 2-1.6 2-2.2.6-.3-.9-1-1.4-1.5-1.1-1.3.8.1-2.8 2-4.9 1.5-1.8 1.6-1.7 2.4.7.6 1.8.4 3.2-.7 4.7zm-122.2-3.7c-.4 1.1.4 1.3 4.1.8l4.6-.5-.6 3.4c-1.1 6.2-1.3 7.4-1.4 8.1-.2 1.6-3 .7-4.4-1.2-.8-1.1-1.7-1.7-2-1.4-.4.4-1.3.1-2.2-.6-1.5-1.2-2.1-8-.8-9.3 1.2-1.3 3.2-.7 2.7.7zm26.7 4.1c.4 2 .7 2.3.8.9.2-3.4 4.1-6.2 4.1-2.9 0 .8.5 1.5 1 1.5.6 0 1-.4 1-.9 0-.6 3.6-.9 8.3-.8l8.2.2v6.2c0 4.7-.5 6.7-1.8 8-1.7 1.7-1.8 1.7-1.1 0 .4-1.1.1-1.7-.9-1.7-1.7 0-4.7-5.7-4.7-9.2-.1-2-.2-2.1-1.1-.5-.6.9-1.4 1.5-2 1.2-.5-.4-1 .6-1 2.2-.3 4.9-.1 13.7.2 15.3.2.8-.3 1.5-1.1 1.5-.9 0-1.6-1.1-1.8-2.7-.2-1.4-.9-3.1-1.6-3.7-.9-.7-1.2-3.2-1-7.3.3-6.7.4-7-2.1 3.9-.3 1.3-.9 2.3-1.5 2.3-1.4 0-2.3-4-1.2-5.3.7-.8.6-1.6-.3-2.4-1.1-1-1.4-.8-1.7 1.4-.4 3.6-2.2 3.9-3.7.7-1-2.3-.7-8.4.6-10.7 1-1.8 3.8 0 4.4 2.8zm58.2-2c.7-.3 5.4-.6 10.5-.9 7.5-.3 9.2-.2 9.2 1 0 .8.4 1.4.9 1.4 1.4 0 2.3 6.8 1.2 8.8-.9 1.5-1 1.3-1.1-.9 0-1.4-.7-4-1.6-5.7-1.6-3.4-3.1-4.5-1.9-1.5 2.6 6.2 2.6 12.3.2 12.3-1.3 0-3.7-4.8-4.6-9.4-.8-3.7-3.1-4.7-3.1-1.2 0 1.3.3 2.7.8 2.9 1 .7.7 5.8-.6 8.9-1.8 4.4-3.7 3.4-3.5-2 .1-.6-.5-1.2-1.3-1.2-1 0-1.4-1.3-1.4-4 0-2.9-.4-4-1.5-4-1.9 0-3.3 3.5-3 7.7.1 2.4-.3 3.4-1.7 3.9-2.7.8-4.6-2-5.4-8.4-.4-3.3-1.1-5.2-2-5.2-.9 0-1.4 1.9-1.6 6.7-.3 6.7-.4 6.8-3.2 7.1-1.9.2-2.6 0-2.1-.8.9-1.4-1.6-11.1-2.7-10.4-.4.3-.8-.9-.8-2.5 0-3 .1-3.1 4.5-3.1 2.5 0 4.5.4 4.5 1 0 1.5 2.7 1.2 3.3-.4.5-1.2 1.3-1.3 3.7-.6 1.7.5 3.7.7 4.3.5zm28.7-.2c2 .3 2.9 2.6 2.3 5.7-.8 3.5-1.8 4.3-4.2 3.5-1.6-.5-2.1-1.5-2.1-4 0-1.9-.4-3.7-1-4-2-1.2-1-2.7 1.3-2.1 1.2.4 2.9.8 3.7.9zm-94.3 5.9c-.1 3.5-.7 6.3-1.3 6.5-1.8.6-4.4-2.6-4.4-5.3 0-1.3-.4-2.4-1-2.4-.5 0-1 1.3-1 3 0 4.2-1.6 3.8-2.3-.6-.9-5.6.5-7.4 5.8-7.4h4.5zm43.6-4.5c1.1.6.9 4.3-.3 4.3-.5 0-1 .9-1 1.9 0 2.6-3.9 9.1-5.4 9.1-1.6 0-4.5-10.2-3.9-13.4.3-1.5 1.3-2.6 2.7-2.9 2.1-.4 6.4.2 7.9 1zm61.8 52.1c-1.8 3.5-10 10.2-11.6 9.6-.8-.3-1.3-1-1-1.5.3-.4 1.2-.6 1.9-.3.8.3 1.7 0 2.2-.7.5-.8.3-1-.7-.4-.8.5-.5-.1.5-1.3 1.1-1.2 2.4-2.2 3.1-2.2.6 0 2.2-1.1 3.5-2.5 2.8-3 3.4-3.2 2.1-.7zm5.9 5.1c0 1-5.3 5.1-6.6 5.1-.4 0 .3-.8 1.4-1.9 1.2-1 2.2-2.3 2.2-3 0-.6.7-1.1 1.5-1.1s1.5.4 1.5.9zm-7 1.9c0 1.2-2.9 3.7-6 5.2-2.1 1-2 .7 1-2.4 3.5-3.5 5-4.3 5-2.8zm-17.5 6.8l-3 2.6 4.9-2.6c5.7-3 5.3-2.9 5.9-1.3.3.8-.4 1.4-1.9 1.5-3.4.3-7.4 3.1-6.7 4.7.3 1-.9 2-3.6 3.1-2.3.9-4.1 2-4.1 2.6 0 .5-.4.6-1 .3-.5-.3-1-.2-1 .4 0 .6-1.7 1.5-3.7 2-6.8 1.9-6.9 1.2-.3-2 3.6-1.7 6-3.3 5.4-3.6-.7-.2-3.9.9-7.3 2.6-4.6 2.2-7.4 2.9-11 2.8-5.5-.2-8.3-1.7-3.2-1.7 2.5 0 3.1-.4 2.9-1.8-.2-1.3.4-1.7 2.4-1.7 1.4.1 2.4-.3 2.2-.7-.7-1.1.8-1 2.5.1 1.1.7.9 1-.8 1.6-2.1.6-3 2.5-1.2 2.5.5 0 3.2-1.1 5.9-2.3 4.8-2.3 5-2.5 3.4-4.2-.9-1-1.2-1.5-.5-1.1.7.4 2.3 0 3.5-.8 1.4-.8 3.1-1.1 4.2-.7 1.8.7 1.8.8.2 1.4-1 .4-2.2.4-2.8.1-.5-.3-.4.3.4 1.5.7 1.2 1.8 2.1 2.4 2.1 1.9 0 3.6-2.8 2.9-4.9-.4-1.3.1-2.4 1.7-3.5 3.6-2.6 4.6-1.8 1.3 1zm-75 9.2l6 .7-7.5.6c-4.8.4-2.6.5 6 .3 14.9-.3 15.8 1 1.4 2-9.4.7-17.2-.4-18.6-2.8-.9-1.4 2.1-2.7 4.7-2 1.1.3 4.7.9 8 1.2zm72.5.2c0 1.1-5.9 5-7.5 4.9-.5 0 0-.5 1.3-1.1 1.2-.6 2.2-1.5 2.2-2 0-.4.7-.8 1.5-.8s1.5-.5 1.5-1c0-.6.2-1 .5-1s.5.5.5 1zm28.6-416.1c1.5 1.6 8.7 4.3 7.9 3-.7-1-6.6-3.9-8.2-3.9-.4 0-.3.4.3.9zm9.4 11.9c0 .4 2.1 1.8 4.8 3.2 2.6 1.4 4.6 3 4.5 3.6-.1.5.7 1 1.8 1 1.9 0 1.8-.1-.3-1.8-3.4-2.7-10.8-6.8-10.8-6zm21 10.6c0 .5.8 1.9 1.8 3 1.7 2 1.7 2-1.1.2-3.1-1.9-4.3-1.6-3.3 1 .4 1 1.2 1.4 2.2 1 1.3-.5 1.5-.2 1.1 1.3-.3 1.3 0 1.8.8 1.5 1.4-.6 2.8 2.2 1.9 3.7-.3.5.2.9 1 .9.9 0 1.3.6 1 1.4-.3.7.2 1.6 1 1.9 1.5.6 1.8-.1 1.5-3.1 0-.4.9-.9 2-1.2 1.7-.4 1.2-1.3-4-6.5-3.2-3.3-5.9-5.6-5.9-5.1zm9 15.1c0 1.4 8.8 11 9.5 10.3.3-.3-1.7-2.9-4.5-5.9-2.7-3-5-4.9-5-4.4zm-7 2.7c0 1.5 4.1 8.1 7.1 11.1 1.7 1.8 4.4 5.1 6.2 7.5 1.7 2.4 3.3 3.9 3.5 3.3.6-1.9 2.1-1.2 3.7 1.9 1.7 3.2 3.9 4.2 2.8 1.2-1-2.8-4.8-6.9-6-6.5-1.3.5-5.3-3.5-5.3-5.2 0-1.2-11.9-14.4-12-13.3zm-10.3 8.4c.3 1 1.5 2.5 2.5 3.2 2 1.5 2.4 3.8.7 4.4-.8.3-.5 1 .6 2.1 2.1 2.1 3.4 1.4 1.5-.8-2.5-3 .9-1.5 3.9 1.7 2.3 2.4 3.1 2.8 3.1 1.6 0-.9.7-1.8 1.6-2 1.4-.3 1.3-.6-.4-2.1-2-1.8-2-1.8-1.5.2.9 3.5-1 2.4-7-4.1-3.2-3.4-5.4-5.3-5-4.2zm11.8 2.6c.4 1.3 1.3 3 2.1 3.8 1.2 1.2 1.4 1.2 1.4-.5-.1-2.1-2.2-5.5-3.4-5.5-.4 0-.4 1-.1 2.2zm-10.2 11.6c-.3 1.2-.9 2.2-1.4 2.2-.5 0-.9 1-.9 2.2.1 1.9.5 1.6 2.1-1.5 1.1-2.2 1.8-4.2 1.4-4.5-.3-.3-.8.4-1.2 1.6zm12.3 2.4c1.9 2.1 1.9 2.1 0 1.4-1.6-.6-1.7-.4-.5 1 .8 1 1.5 1.2 1.7.5.2-.6.8-.8 1.4-.5.5.4.2-.5-.7-2-1-1.4-2.2-2.6-2.8-2.6-.5 0-.2 1 .9 2.2zm4.4-1.7c0 .9 4.4 9.1 5.8 10.7 2.4 2.8 3.4 2.1 1.7-1.2-.9-1.7-2-3-2.6-3-.5 0-.9-.6-.7-1.3.3-1.6-2-5.7-3.2-5.7-.6 0-1 .2-1 .5zm11.7 7.2c-1.4 1.3-.7 6.1.9 6.7 1.3.5 1.5.1.9-2.1-.4-1.9-.3-2.5.4-1.8 1.5 1.5 2.6 7 1.2 6.1-1.5-1-1.4 1.6.3 3.9 1.3 1.8 1.4 1.8 2-.2.4-1.1.3-2.8-.1-3.8-.5-1.4-.3-1.7 1-1.2 1.1.4.8-.6-1.1-3.8-2.6-4.2-4.1-5.3-5.5-3.8zm-263.3 3.9c-.6 2.5-.8 2.6-1.5.9-.4-1.1-.5.5-.2 3.5.4 3.7 0 6.7-1 9.1-.9 2.3-1.2 4.2-.6 5 .6 1 .9.7.9-1.2 0-1.4.3-2.9.7-3.3.8-.8 1.1-2.2 2.2-10.1.9-6.5.6-8.5-.5-3.9zm253.3 4.9c3.2 4 4.4 4.4 3.6 1.5-.4-1.6-.2-1.9 1.2-1.3 1.3.4 1.6.3 1.1-.6-.5-.7-1.3-1-2-.8-.6.3-2-.1-3.1-.9-3.3-2.4-3.7-1.5-.8 2.1zm-248.5 1c-.1 1.9.3 3.5.8 3.5 1.2 0 1.3-5.7.2-6.4-.5-.3-.9 1-1 2.9zm263.6 6.7c-.8 2 .1 5.8 1.3 5.8 1 0 1-1.4 0-5-.6-2-.8-2.2-1.3-.8zm-13.5 3.2c1.2 1.8 3 4.8 4 6.6 1 1.8 2 3 2.3 2.7.3-.3-.1-1.6-1-2.9-1.8-2.5-2.1-4.2-.6-3.3 1.5.9 1.1-.7-.6-3-1.6-1.9-1.6-1.9-1 .5.7 2.4.7 2.4-.9.5-.8-1.1-1.3-2.5-1.1-3.2.3-.8-.2-1.3-1.4-1.3-1.9 0-1.9.1.3 3.4zm-259.7 8.1c-.4 2.2-1.2 4.5-1.8 5.2-1.3 1.6-.2 14.5 1.6 18.5.4.9.5 2.1.2 2.7-.3.5-.1 2 .4 3.3.8 1.7.9.2.5-5.7-.4-4.4-1-8.5-1.6-9.1-1.2-1.5-.9-5.9.9-11.6.7-2.6 1.2-5.3 1-6-.3-.7-.8.5-1.2 2.7zm256.4 1.3c0 .4.7 1.8 1.6 3.1 1.3 1.8 1.4 2.5.4 3.1-.9.6-1 1.2-.1 2.6 1 1.8 1 1.7 1.1-.4 0-1.3.4-2 1-1.7 1.6 1 1.2-.7-1-4.3-1.9-3.1-3-4-3-2.4zm-47.4 2.6c.5 2 .2 3.1-1.2 4.1-1.1.8-1.4 1.5-.9 1.5.6.1-.3.7-1.9 1.5l-3 1.2 5.4 1.6c3 .9 5.6 1.4 5.8 1.2.2-.2-.5-.6-1.6-.9-2.2-.7-1.9-4.6.4-4.6.7 0 1.6-.5 2-1.2.5-.7.2-.9-.8-.5-2.4.9-3-.4-1.3-3 .9-1.3 1.1-2.3.6-2.3-.5 0-1.7-.3-2.6-.6-1.3-.5-1.5-.2-.9 2zm21.4-.9c0 .6 8.6 4.5 9.7 4.5.3 0-1.1-1.1-3.1-2.5-3.4-2.3-6.6-3.3-6.6-2zm-32.4 7.1c-.4.9-.9 1.4-1.3 1.1-.8-.8-3.3 1.2-3.3 2.6 0 .7.4.7 1.2-.1.8-.8 1.5-.7 2.7.6.9 1 2.6 1.9 3.9 1.9 1.3.1 4.8.9 7.9 1.8 4.1 1.2 5.3 1.9 4.2 2.6-.8.5-2.5.8-3.9.8l-2.5-.1 2.5-.7c1.9-.6.8-.9-4.5-1.5-3.8-.4-7.4-1.1-8-1.6-.6-.5-1.8-.3-2.9.6-1.8 1.3-1.5 1.4 3.1 1.4 3 0 5.7.6 6.5 1.4.8.7 4.2 1.5 7.6 1.8 3.4.2 5.7.1 5.2-.2-.6-.4-1-1.2-.8-1.9.2-.8-3-2.5-8.5-4.4-8.3-2.9-8.6-3.1-6.9-4.7 1-.9 2.4-2 3.2-2.3.8-.3.1-.6-1.6-.6-2.1-.1-3.4.5-3.8 1.5zm-89.4 10.1c-4.1 1.4-4.9 3.3-1.4 3.3.9 0-1.9 1.7-6.3 3.6-4.4 2-8.2 3.8-8.5 4.1-.9 1 4.6-.6 9.6-2.9 2.7-1.2 5.5-2.1 6.2-2 .6.2 1.2-.2 1.2-.8 0-.7 1.6-.9 4.8-.6 3.6.4 4 .3 1.7-.3-1.6-.5-2.3-.9-1.5-1 1.2-.1 1.1-.4-.4-1.2-1.4-.9-2-.8-2.6.1-.5.8-1.6.9-3.1.5-2.2-.7-1.9-1 2.6-2.6 2.8-.9 4.3-1.7 3.5-1.7-.8 0-3.4.6-5.8 1.5zm54.8 1.4c-2.6 1.3-3.9 2.3-3.1 2.6.7.3 1.6 0 2-.6.4-.6 2.5-1.7 4.6-2.5 2.2-.8 3.3-1.5 2.5-1.5-.8 0-3.5.9-6 2zm24.5 2.5l-3 1.4 4-.7c2.2-.3 4.8-.7 5.7-.8 1-.1 2.1-.4 2.4-.8 1.3-1.3-6.1-.6-9.1.9zm-17.5 1.2c-5.5 1.3-6.1 1.7-4 2.3 1.4.4 1.9.7 1.1.8-.8.1-1.2.3-.9.6.8.8 3.9-.6 3.3-1.5-.3-.5.3-.9 1.2-.9 3.8.1 12.4-1.4 12.9-2.2.8-1.3-6.3-.9-13.6.9zm8.8 2c-1.6.2-2.8.8-2.8 1.3 0 .6-.8.8-1.8.5-1-.4-4.3.5-7.3 1.8-5.8 2.7-5.2 3.6.8 1.1 1.9-.8 5.3-1.5 7.4-1.5 2.2 0 3.9-.4 3.9-1 0-.5.6-.7 1.4-.4.8.3 1.7.1 2-.5.8-1.3-.3-1.7-3.6-1.3zm-36.8 1.2c-1.3.8-1.3 1 0 1.4 2.2.8 5.3.1 5.8-1.2.4-1.4-3.7-1.6-5.8-.2zm36.5 3.8c-1.4.7-3.6 1.2-4.9 1-2.5-.3-10.6 3-10.6 4.4 0 1.1 1.7 1 2.5-.2.3-.5 1.8-.7 3.4-.4 1.7.4 3.3 0 4.2-.8 1.8-1.8 11.3-5 11.7-3.9.2.7 8.1-.4 8.9-1.3 1-1-13.1.1-15.2 1.2zm-47.5.3c-3.2.6-3 .6 1.7.8 2.8 0 6 .4 7 .8 1 .3 1.5.3 1.2-.1-1.2-1.3-6.5-2.2-9.9-1.5zm13.8-.4c-2.2.6-2.3 1.7-.2 3.4 1.4 1.1 1.3 1.4-.8 2.5-2.2 1.3-2.2 1.3 1 1.4 2 0 3.1-.4 2.7-1-.3-.6.4-1 1.6-1 1.8 0 1.9.2.9 1.5-.8 1-.9 1.5-.1 1.5.6 0 1.8-1.1 2.7-2.5.9-1.3 2.5-2.7 3.6-3.1 1.1-.3 1.7-.8 1.5-1-.2-.3-1.6.1-3.1.7-2.1 1-3.1 1-5.1-.1-1.9-1-2.2-1.6-1.3-2.2 1.4-.9-.3-.9-3.4-.1zm-76.8 2.8c.7.8.9 1.5.6 1.5-.4 0-.1.7.8 1.5 1.1 1.2 2 1.3 3.3.5 1-.6 3.8-1.7 6.3-2.4l4.5-1.4-3.5-.1c-1.9 0-4.6.6-6 1.4-2.6 1.5-4.8 2-3.7.9.3-.4 0-1.3-.8-2-1.8-1.9-3.1-1.8-1.5.1zm57.8 1.2c1.2.2 2.2.9 2.2 1.4 0 .5 1.2.8 2.8.8 1.7-.1 2-.3.9-.6-.9-.2-1.5-.9-1.2-1.4.4-.5-1.1-.8-3.2-.8-2.3.1-2.9.3-1.5.6zm119.2.8c0 1.2.5 1.5 1.7 1.1.9-.4 2.5.1 3.7 1.2 1.8 1.6 5.6 2.7 5.6 1.5 0-.1-2.1-1.3-4.7-2.5-2.7-1.2-5.1-2.3-5.5-2.5-.5-.2-.8.3-.8 1.2zm6.6 24.3c-.6 1.1 3.1 4.8 4 3.9.3-.3-.3-1.5-1.4-2.7-1.1-1.2-2.3-1.7-2.6-1.2zm-143 46.9c-.9 2.3-.7 2.5 1.4 1.8 2.6-.8 2.7 1.4.1 4.6-2.1 2.7-2.7 9.4-.8 8.5.7-.3 1.9-.9 2.9-1.2.9-.3 1.9-1.6 2.2-2.7.5-1.7.8-1.9 1.5-.9.7 1.1.9 1 1.4-.3.4-.9.3-1.3-.3-1-1.3.8-1.3-2.1 0-4.6 1.4-2.5-.2-2.5-1.8.1-.7 1.1-1.7 2-2.3 2-.7 0-.5-1 .5-2.4.9-1.4 1.3-3.1 1-3.9-.7-1.9-5.1-1.9-5.8 0zm-6.9 14.1c-2.6 2.6-4.7 5.3-4.7 5.9 0 .6-.9 1.5-2 1.8-1.1.3-2 1-2 1.4 0 .5-1.1 2.5-2.5 4.5-2.9 4.2-3.4 10.1-1.5 16.1 2.8 9 4.2 12.6 4.6 12.2.3-.2 0-1.6-.5-3.1-.6-1.4-.8-3.3-.4-4.2.3-.9 0-2-.7-2.4-.8-.5-1-1.8-.5-4.1l.7-3.3 1.4 3 1.4 2.9-.6-4c-.3-2.2-.7-4.7-1-5.6-.6-2.2 6.8-10.3 8.2-8.9 1.3 1.3 4.8.2 6.2-2.1.7-1 .8-1.9.3-1.9s-1.1.7-1.4 1.5c-.5 1.2-1 1.2-3.4 0-1.5-.8-3.6-1.2-4.5-.9-3.1.9-2-1.1 3.3-6.4 2.8-2.8 4.9-5.6 4.7-6.2-.2-.6-2.5 1.1-5.1 3.8zm87.8 13.2c.7 1.2-1.2 4-2.6 4-.5 0-.9-.7-.9-1.5s-.5-1.5-1-1.5c-.6 0-.8 1.1-.4 2.5.4 1.8.1 2.7-1 3.1-2 .8-2.1 5.1-.1 5.1.8 0 1.2-.4.9-.8-.2-.4.2-1.3.9-2.1 1.3-1.3 1.7-2 1.7-3.6.1-.4.7.4 1.4 1.7.8 1.5 1.6 2 2 1.2.4-.6.2-1.1-.3-1.1-.6 0-1.1-.4-1.1-.8s1.6-.8 3.6-.9c3.3-.1 3.5.1 3 2.3-.6 2.4-.5 2.4 1.6 1.2 1.3-.7 2.7-1.1 3.2-1 .4.2 1.5-.3 2.3-1 1.4-1.1 1.5-1 .9 1-.6 1.8-.4 2.2 1.4 2.2 1.9 0 2.1-.4 1.6-2.8-.4-1.5-.7-3.2-.8-3.9-.1-.7-.5-1-.9-.8-.4.3-2.3-.2-4.3-1-2-.9-4.1-1.3-4.6-1-.5.3-1.1.1-1.5-.5-.3-.5-1.7-1-3.1-1-1.5 0-2.3.4-1.9 1zm-125.1 3.4c-3.5 1.3-12.1 9.6-9.9 9.6.8 0 3.1-1.7 5.2-3.9 2.1-2.1 5-4.1 6.6-4.5 1.5-.3 2.7-1.1 2.7-1.6 0-1.2-.5-1.1-4.6.4zm143.9 4c.9 1.9 1.5 2.2 2.5 1.4 1.7-1.5 1-3-1.5-3.4-1.9-.3-2-.1-1 2zm2.7 3.8c0 1-.7 1.8-1.5 1.8s-1.5.9-1.5 2-.4 2-1 2c-.5 0-1.2 2.2-1.6 4.9-.4 2.8-1.2 5.2-2 5.5-.8.3-1.4 1.1-1.4 1.9 0 .7-1.1 2.3-2.5 3.5-3.3 2.9-3.5 5.8-.3 4 3-1.8 4.6-2.9 7.4-5.5 2-1.9 2.6-2 3.8-.8 1.3 1.4 2.6 1 2.6-.7 0-.5-.4-.6-1-.3-2.4 1.5-.7-2.8 2.5-6.4 1.9-2.1 3.5-4.4 3.5-5.1 0-.7-.9-.2-2 1.1-1 1.3-1.9 1.9-2 1.2 0-.7-.7-1-1.5-.7-1.8.7-1.8.6-.4-3.4.7-2.2.7-3.6 0-4.9-1-1.7-1-1.7-1.1-.1zm-128 23.5c0 3.6.1 3.7 1.5 1.6.8-1.2 1.2-2.8.9-3.7-1.1-2.9-2.4-1.7-2.4 2.1zm136.1-1.3c-2.3 2.4-2.3 2.4-.3 3.5 1.4.7 2.3.8 2.7.1.3-.6-.4-1-1.7-1-2.2-.1-2.2-.2.7-2.5 1.7-1.4 2.5-2.5 1.9-2.5-.6 0-2.1 1.1-3.3 2.4zm-47.4 2.3c-.8 1.6-.7 7.2.2 9.4.8 1.9 1 1.1 1-3.9.1-5.8-.2-7.3-1.2-5.5zm36.5 3.4c-1.5 3.9-2.4 11.7-1.2 9.9.5-.8 1-2.3 1-3.3 0-.9.7-1.7 1.5-1.7 1.1 0 1.3-.8.8-3.3-.8-4.2-1.1-4.4-2.1-1.6zm-15.7 2.9c.4.6.1 1.8-.6 2.6-1.4 1.7-1.2 2 2.4 2.9 1.8.5 2.7.3 2.7-.5 0-.6.7-1.9 1.6-2.7 1.2-1.3 1.3-1.8.3-2.4-.8-.4-1.9-.3-2.6.3-.9.7-1.3.7-1.3-.1 0-.6-.7-1.1-1.6-1.1-.8 0-1.2.5-.9 1zm-78 9.5c-.7 5.3-.3 7.6 1.1 6.2.9-.9 1.3-11.7.4-11.7-.5 0-1.2 2.5-1.5 5.5zm34.2.3c-2.2 2.4-3.5 12.6-1.6 12 .8-.2 1.5-1.4 1.7-2.6.2-1.2.8-2 1.3-1.7.5.4.9.1.9-.4 0-.6-.6-1.1-1.2-1.1-.9 0-1-.3-.2-.8.9-.6 1.8-7.2 1-7.2-.2 0-1 .8-1.9 1.8zm-6.4 4.9c.5 3.9.3 4.3-1.6 4.4-2.2 0-2.2 0 .1.9 1.2.5 2.2 1.6 2.2 2.4 0 .8.4 1.8 1 2.1.9.5.7-3.4-.4-10.7-.5-3.9-1.8-3-1.3.9zm-27.2 6.5c-.5 1.4-.3 3.1.8 5 1.4 2.5 1.4 3 .1 3.8-1.3.9-1.3 1.1 0 2 2.1 1.3 3.5-2.7 2.1-5.8-1.4-2.9-1.4-3.5-.1-2.7.6.3 1 .1 1-.4 0-.6-.5-1.1-1.1-1.1-.6 0-.9-.7-.5-1.5.3-.8.1-1.5-.5-1.5-.5 0-1.3 1-1.8 2.2zm-34.4-137.4c-1 1-1.7 2.1-1.7 2.4 0 1.1 4 1.6 4.7.6.4-.7.1-.8-.7-.3-1 .6-1.1.2-.6-1.9.8-3.1.5-3.2-1.7-.8zm153 34.8c.3.7.1 1.4-.5 1.4s-.8.9-.5 2c.5 1.9 2.3 2.9 2.3 1.2 0-.4.3-1.7.6-2.8.4-1.4 0-2.3-1-2.7-1-.4-1.3-.1-.9.9zm5.7 5.9c-.7 3.9.7 6.5 3.3 6.1.9-.2 2-1.1 2.4-2.2 1.3-3.2 1-3.7-.8-1.5-1.3 1.5-2.2 1.8-3.3 1.1-1.2-.8-1.3-1.3-.2-3 1.4-2.4 1.6-4 .2-4-.5 0-1.2 1.6-1.6 3.5zm-205.5 77.3c-1 6.8-.3 11.3 1.1 7.7.8-1.8.9-1.7.9.7.1 2.2.6 2.8 2.3 2.8 2 0 2-.1.5-1.8-.9-1-1.9-3.4-2.2-5.3-.5-3.4-.4-3.4.9.6.8 2.2 1.5 3.4 1.5 2.7.1-2.1 2.1-.3 2.1 1.9 0 1 .4 1.9.9 1.9s.5-1.5-.1-3.4-1.6-3.4-2.2-3.3c-.6.1-1.2-.8-1.4-1.9-.3-2-4.1-4.2-4.3-2.6zm8.6 16.7c.4 2.2.6 5.2.6 6.7-.2 3.4 8.2 29.1 10.5 32.1.9 1.2 1.4 1.5 1.2.7-1.3-4.1-3.7-11.9-4.7-15.5-.6-2.2-1.9-6.9-3-10.5-1-3.6-2.2-8.3-2.5-10.5-.4-2.2-1.2-4.7-1.7-5.5-.8-1.1-.9-.4-.4 2.5zm-3 20.7c-.4 4.9-.3 7.4.4 7.6.6.2 1.1 1.1 1.1 2 0 1.5.2 1.5 1 .2s1-1.2 1 .3c0 1 .7 2 1.6 2.4 1.2.4 1.3.8.3 1.4-1 .6-.8 2 .6 6.6 1 3.2 2.2 6.3 2.7 6.9.5.7.3 1.4-.5 1.7-1.3.5-3.8-6-5.1-13.3-.2-1.4-.4 0-.3 3.1 0 3-.3 6.1-.7 6.8-.5.7-.5 2.8-.2 4.7.7 3.4 2.1 4.5 2.9 2.1.6-1.8 1.4-.6 2.1 3.6.6 3.1.4 3.8-.6 3.2-.7-.3-.4 0 .6.9 1 .8 2.3 1.3 2.8 1 1-.6.5-6.4-.7-9.7-.4-.9-.3-1.7.3-1.7 1.6 0 4.4 9.2 4.6 15.3.1 3.8.7 6.1 1.7 6.8 2.3 1.4 2.6 1.1 2.2-2.6-.2-1.9.1-3.5.6-3.5 1.4 0-.8-6-2.4-6.6-.7-.3-1.1-1.4-.8-2.5.3-1 .1-1.9-.3-1.9-.5 0-.9-1.7-.9-3.8-.1-2.1-1.3-6.3-2.8-9.3-1.5-3-2.8-6.4-3-7.7-.2-1.3-.9-2.7-1.6-3.2-.9-.5-1-1-.2-1.4.6-.4 1.1-1.5 1-2.4 0-1.4-.2-1.3-.8.3-.8 1.9-.9 1.9-1.9-.5-.6-1.4-1.6-5.1-2.2-8.3-.6-3.1-1.3-5.7-1.4-5.7-.2 0-.7 3.3-1.1 7.2zm18.1 14.3c.4 1.1.9 3.5 1.2 5.2.2 1.8.9 3.3 1.6 3.3.6 0 1.7.9 2.4 2s1.7 2 2.2 2c1.7 0-.1-5.1-2.7-8-1.3-1.5-3-3.5-3.9-4.6-1.5-1.9-1.5-1.9-.8.1zm160.5 34.1c-1.4 3.2-1.2 3.6 1.6 2.1 1.8-1 2-1.5.9-2.9-1.2-1.6-1.4-1.6-2.5.8zm-14.7 3.1c-1 1.5-3.4 4.2-5.3 6-2 1.8-3 3.2-2.3 3.3 2.3 0 11.2-10.4 9.9-11.6-.3-.3-1.3.7-2.3 2.3zm-152.9 1.3c-.4 1.2-.4 2.4-.1 2.7.3.4.6-.2.6-1.3.1-1 1.1.5 2.4 3.5 1.8 4 2.5 4.9 3 3.6.5-1.5 1-1.2 2.4 1.6 3.1 5.9 4.6 7.9 6.1 7.9 1.1 0 1-.5-.4-2-1.1-1.2-1.3-2-.6-2 .7 0 .2-1.7-1.4-4.3-1.4-2.4-2.5-5.1-2.5-6 0-.9-.5-1.9-1.1-2.3-.8-.4-.9.1-.4 1.7l.6 2.4-2.1-2.5-2.1-2.5.6 3c.5 2.8.4 2.8-1.3-.7-2.5-5-2.9-5.3-3.7-2.8zm39.1 4c1.2 1.4 2.5 3.2 2.9 4 .8 1.3.7 1.3-.8.1-1.6-1.2-2.2-.8-1.8 1.2.1.5-.4.7-1.1.5-.7-.3-1.3-1.3-1.3-2.3 0-1.2-.8-1.9-2.3-2-1.2-.1-2.2 0-2.2.2 0 1.2 8 7.1 11.5 8.5 5.3 2.1 7.8.8 7.8-4.1 0-3.9-1.5-5.1-6.3-4.7-2.4.3-4.2-.3-6-1.8l-2.5-2.1zm100.3 4c-1.4.8-1.7 2.8-1 6.1.6 2.9 10.2.6 12.8-3 2.3-3.4-.3-4.8-3.4-1.9l-2.3 2.1-1.9-2.1c-2.1-2.5-2-2.5-4.2-1.2zm-25.9 12c-1.2 2.8-.8 5.1.6 3.8.6-.6 1.5-6.8 1-6.8-.2 0-.9 1.4-1.6 3zm-9.4 3.2c.2.4 0 .9-.6 1.3-1.4.9-1.2 2.2.4 2.8.7.3 2.2-.6 3.3-2.1l2-2.7h-2.8c-1.5 0-2.5.3-2.3.7zm15 3.3c-.3.9-1.8 1.5-3.4 1.5-1.6 0-3.6.8-4.6 1.9-1.5 1.6-1.5 1.9-.1 3.1 1 .8 1.5.9 1.5.1 0-.6.7-1.1 1.5-1.1s1.5-.4 1.5-.9.9-1.3 2-1.6c2.1-.7 4.8-4.5 3.1-4.5-.5 0-1.1.7-1.5 1.5zm20.8 2.5c-5.6 3.3-9.2 6.6-5.8 5.4 2.4-.9 10.1-6.1 10.9-7.4.9-1.4.6-1.3-5.1 2zm-13.9 4.5c-3.1 2.5-5.1 3.3-4 1.5 1.1-1.7-1.2-1.1-3.6 1-2.1 1.7-2.1 1.9-.4 1.3 1.7-.6 1.8-.5.7.9-1 1.3-.9 1.6.8 2.1 1.1.3 1.8.1 1.4-.4-.3-.5.6-1.4 1.9-2 1.4-.6 3.5-2.4 4.6-4 2.6-3.5 2.4-3.6-1.4-.4zm-10.6-.8c0 .5-.2 1.6-.4 2.6-.3 1.8-.3 1.8 1.6.1 1-.9 1.9-2.1 1.9-2.6 0-1-3-1.1-3.1-.1zm-7.5 3.8c-.4.8-1 1.3-1.4 1-1.3-.8-4 .6-4 2 0 .9.8 1 3.4.1 1.9-.6 3.2-1.4 2.9-1.9-.3-.5.5-.6 1.8-.2 2.1.7 2.2.6.7-.9-2-2-2.7-2-3.4-.1zm-71.1.2c1 1.5 6.5 3.4 7.2 2.3.3-.4-.6-1.1-1.9-1.4-1.3-.3-3.2-.9-4.2-1.3-1.1-.4-1.5-.3-1.1.4zm68-79.2c-1.5 1.6-1.7 3.5-.4 3.5.5 0 1.4-.7 2.1-1.5 1.7-2 0-3.9-1.7-2z"/></svg>